<svg width="646" height="520" viewBox="0 0 646 520" fill="none" xmlns="http://www.w3.org/2000/svg">
<g clip-path="url(#clip0_2_16)">
<path d="M494.593 514.12C486.322 504.71 481.299 489.846 482.616 475.376C483.934 460.906 492.093 447.604 502.678 444.531C513.263 441.458 525.328 449.964 528.543 463.885C530.312 437.046 532.351 409.082 542.95 386.226C552.546 365.53 569.167 350.722 587.181 348.073C605.195 345.423 624.161 355.429 635.395 374.572C646.63 393.715 649.381 421.545 641.512 443.523C635.716 459.713 625.037 471.762 613.848 481.565C577.693 512.973 534.33 525.746 491.737 517.532L494.593 514.12Z" fill="#F2F2F2"/>
<path d="M617.582 355.984C602.718 372.284 589.083 390.515 576.872 410.412C557.762 441.444 542.298 476.237 531.019 513.578C530.194 516.302 533.479 517.488 534.295 514.794C552.75 454.107 582.211 400.618 619.984 359.219C621.681 357.359 619.264 354.14 617.582 355.984Z" fill="white"/>
<path d="M207.958 511.563C219.317 498.639 226.217 478.224 224.408 458.349C222.598 438.474 211.391 420.203 196.853 415.983C182.315 411.762 165.743 423.445 161.327 442.566C158.897 405.702 156.097 367.294 141.54 335.901C128.359 307.476 105.53 287.136 80.788 283.498C56.0461 279.859 29.9961 293.602 14.5655 319.895C-0.865118 346.188 -4.64324 384.412 6.16396 414.599C14.1252 436.836 28.7927 453.385 44.1606 466.849C93.1894 509.803 154.01 527.717 211.881 516.25" fill="#F2F2F2"/>
<path d="M39.0324 294.364C59.4475 316.752 78.1762 341.792 94.9476 369.12C111.722 396.421 126.489 425.848 139.043 456.987C146.061 474.455 152.364 492.426 157.926 510.819C159.06 514.561 154.548 516.19 153.426 512.49C143.575 480.063 131.386 449.013 117.036 419.787C102.755 390.667 86.41 363.481 68.2303 338.611C57.9477 324.551 47.0988 311.263 35.7326 298.806C33.4028 296.252 36.7218 291.83 39.0324 294.364Z" fill="white"/>
<path d="M463.709 518.862H192.686V144.461C192.686 64.805 240.819 -3.8147e-06 299.981 -3.8147e-06H356.414C415.577 -3.8147e-06 463.709 64.805 463.709 144.461V518.862Z" fill="#F2F2F2"/>
<path d="M407.277 518.862H192.686V144.462C192.627 113.939 199.806 84.1878 213.177 59.5398C213.67 58.6353 214.161 57.7424 214.668 56.8594C221.136 45.4385 228.833 35.3803 237.504 27.0167C237.994 26.5369 238.486 26.0653 238.985 25.5938C246.241 18.833 254.09 13.3062 262.354 9.13916C262.845 8.88874 263.344 8.63782 263.844 8.39716C271.318 4.80619 279.065 2.34639 286.943 1.06319C287.431 0.973362 287.933 0.903072 288.434 0.83278C296.111 -0.272395 303.854 -0.272395 311.531 0.83278C312.031 0.903072 312.532 0.973353 313.026 1.06415C320.902 2.34744 328.647 4.80693 336.119 8.3972C336.619 8.63787 337.119 8.88877 337.611 9.13968C345.772 13.2541 353.529 18.6985 360.708 25.3512C361.207 25.8125 361.706 26.284 362.198 26.7556C367.059 31.4271 371.624 36.6314 375.848 42.3154C379.236 46.8746 382.392 51.7345 385.296 56.8623C385.802 57.7425 386.293 58.6353 386.785 59.5384C400.157 84.1867 407.336 113.938 407.277 144.462V518.862Z" fill="#CCCCCC"/>
<path d="M389.828 351.406C396.389 351.406 401.708 344.245 401.708 335.411C401.708 326.576 396.389 319.415 389.828 319.415C383.266 319.415 377.947 326.576 377.947 335.411C377.947 344.245 383.266 351.406 389.828 351.406Z" fill="#1C5052"/>
<path d="M441.507 507.648H432.403L428.072 460.372L441.508 460.373L441.507 507.648Z" fill="#FFB8B8"/>
<path d="M425.901 504.146H443.457V519.028H414.847C414.847 517.074 415.133 515.139 415.688 513.333C416.244 511.527 417.058 509.887 418.085 508.505C419.111 507.123 420.33 506.026 421.671 505.278C423.012 504.53 424.449 504.146 425.901 504.146Z" fill="#2F2E41"/>
<path d="M486.801 507.648H477.698L473.366 460.372L486.803 460.373L486.801 507.648Z" fill="#FFB8B8"/>
<path d="M471.195 504.146H488.751V519.028H460.141C460.141 517.074 460.427 515.139 460.983 513.333C461.538 511.527 462.352 509.887 463.379 508.505C464.405 507.123 465.624 506.026 466.965 505.278C468.306 504.53 469.744 504.146 471.195 504.146Z" fill="#2F2E41"/>
<path d="M395.84 338.579C395.185 337.28 394.75 335.804 394.565 334.253C394.38 332.703 394.449 331.117 394.768 329.607C395.088 328.097 395.649 326.7 396.413 325.513C397.177 324.327 398.125 323.38 399.189 322.741L430.135 207.905L445.362 219.093L410.029 328.834C410.709 331.314 410.689 334.044 409.974 336.506C409.259 338.968 407.898 340.991 406.15 342.192C404.401 343.393 402.385 343.689 400.485 343.023C398.585 342.357 396.932 340.776 395.84 338.579Z" fill="#FFB8B8"/>
<path d="M482.151 360.158C481.139 359.377 480.267 358.307 479.596 357.023C478.925 355.739 478.471 354.272 478.266 352.727C478.061 351.181 478.11 349.594 478.411 348.076C478.711 346.559 479.254 345.149 480.003 343.945L470.416 222.468L487.745 223.534L491.729 343.023C493.148 344.85 494.019 347.315 494.179 349.95C494.338 352.584 493.774 355.206 492.593 357.318C491.412 359.43 489.697 360.886 487.773 361.409C485.848 361.933 483.848 361.487 482.151 360.158Z" fill="#FFB8B8"/>
<path d="M454.506 186.634C464.578 186.634 472.744 175.64 472.744 162.079C472.744 148.518 464.578 137.525 454.506 137.525C444.434 137.525 436.269 148.518 436.269 162.079C436.269 175.64 444.434 186.634 454.506 186.634Z" fill="#FFB8B8"/>
<path d="M482.034 332.53H427.052L427.119 331.954C427.217 331.093 436.918 245.538 429.763 217.549C429.045 214.798 429.109 211.787 429.941 209.095C430.773 206.404 432.315 204.222 434.27 202.969C444.496 196.485 464.125 188.502 480.693 207.877C483.131 210.775 485.035 214.397 486.254 218.456C487.473 222.516 487.974 226.901 487.717 231.267L482.034 332.53Z" fill="#1C5052"/>
<path d="M437.613 258.182L412.859 251.42L424.462 214.4C425.156 210.815 426.879 207.746 429.251 205.868C431.624 203.99 434.452 203.455 437.117 204.382C439.782 205.308 442.065 207.619 443.466 210.809C444.866 213.999 445.27 217.806 444.589 221.396L437.613 258.182Z" fill="#1C5052"/>
<path d="M469.316 270.736L467.827 224.807C466.699 216.173 470.37 208.011 476.016 206.677C481.663 205.348 487.177 211.336 488.311 220.033L493.904 262.949L469.316 270.736Z" fill="#1C5052"/>
<path d="M480.205 327.031C489.052 372.396 490.017 430.073 487.631 492.987L475.75 490.988L454.217 371.02L442.336 492.987L428.971 491.988C424.978 425.975 421.09 369.305 427.486 332.03L480.205 327.031Z" fill="#2F2E41"/>
<path d="M466.523 181.056C463.121 185.935 456.802 183.316 456.359 176.65C456.324 176.132 456.327 175.611 456.366 175.094C456.595 172.142 457.862 169.461 457.559 166.343C457.49 165.567 457.275 164.828 456.935 164.195C454.224 159.307 447.86 166.381 445.301 161.956C443.732 159.243 445.576 154.971 444.372 151.938C442.783 147.936 438.076 149.91 435.125 147.718C431.841 145.279 432.037 138.496 434.199 134.369C436.835 129.337 441.458 126.652 446.023 126.265C450.587 125.878 455.121 127.539 459.382 129.775C464.225 132.316 469.026 135.827 472.006 141.56C475.63 148.531 475.978 157.903 474.166 166.055C473.064 171.014 469.301 177.071 466.523 181.056Z" fill="#2F2E41"/>
<path d="M623.711 519.505H75.5059C75.2719 519.504 75.0477 519.378 74.8824 519.155C74.7172 518.932 74.6244 518.63 74.6244 518.315C74.6244 518 74.7172 517.697 74.8824 517.474C75.0477 517.251 75.2719 517.125 75.5059 517.124H623.711C623.945 517.125 624.169 517.251 624.334 517.474C624.499 517.697 624.592 518 624.592 518.315C624.592 518.63 624.499 518.932 624.334 519.155C624.169 519.378 623.945 519.504 623.711 519.505Z" fill="#3F3D56"/>
<path d="M348.246 410.391H251.717C250.446 410.4 249.224 409.73 248.319 408.527C247.414 407.325 246.901 405.689 246.891 403.977V113.885C246.901 112.173 247.414 110.537 248.319 109.335C249.224 108.132 250.446 107.462 251.717 107.471H348.246C349.517 107.462 350.739 108.132 351.644 109.335C352.549 110.537 353.063 112.173 353.072 113.885V403.977C353.063 405.689 352.549 407.325 351.644 408.527C350.739 409.73 349.517 410.4 348.246 410.391Z" fill="white"/>
<path d="M353.072 201.336H246.891V203.335H353.072V201.336Z" fill="#CCCCCC"/>
<path d="M353.444 315.416H247.262V317.415H353.444V315.416Z" fill="#CCCCCC"/>
<path d="M281.79 107.471H280.305V411.39H281.79V107.471Z" fill="#CCCCCC"/>
<path d="M318.916 107.471H317.431V411.39H318.916V107.471Z" fill="#CCCCCC"/>
</g>
<defs>
<clipPath id="clip0_2_16">
<rect width="646" height="520" fill="white"/>
</clipPath>
</defs>
</svg>
