<svg width="630" height="373" viewBox="0 0 630 373" fill="none" xmlns="http://www.w3.org/2000/svg">
<g clip-path="url(#clip0_14_175)">
<path d="M486.37 371.822L486.383 371.328C486.647 363.054 489.044 354.928 493.405 347.515C497.767 340.101 503.989 333.578 511.639 328.399C515.957 325.523 520.687 323.117 525.718 321.239L526.198 321.058L526.28 321.496C527.254 326.72 528.796 332.053 529.515 334.419L534.333 318.552L534.868 318.422C537.323 317.814 539.938 317.84 542.375 318.497C544.812 319.154 546.96 320.412 548.542 322.109C550.193 323.806 551.205 325.882 551.445 328.069C551.686 330.256 551.146 332.453 549.894 334.378C548.771 336.144 547.667 337.987 546.599 339.768C542.931 345.891 539.137 352.223 533.61 357.141C529.382 360.83 524.232 363.675 518.535 365.469C512.838 367.262 506.739 367.959 500.682 367.509L486.37 371.822Z" fill="#F2F2F2"/>
<path d="M339.896 226.929H215.527C211.054 226.924 206.765 225.423 203.603 222.753C200.44 220.084 198.661 216.464 198.656 212.689V65.0221C198.679 47.7832 206.803 31.2559 221.245 19.0661C235.688 6.8763 255.27 0.0195065 275.695 0H339.896C344.369 0.00426253 348.657 1.50583 351.82 4.17528C354.983 6.84474 356.762 10.4641 356.767 14.2392V212.689C356.762 216.464 354.983 220.084 351.82 222.753C348.657 225.423 344.369 226.924 339.896 226.929Z" fill="#F2F2F2"/>
<path d="M219.876 128.331C217.992 128.333 216.186 128.965 214.853 130.089C213.521 131.214 212.772 132.738 212.77 134.328V168.033C212.772 169.623 213.521 171.148 214.853 172.272C216.186 173.396 217.992 174.029 219.876 174.031H340.739C342.623 174.029 344.429 173.396 345.761 172.272C347.093 171.148 347.842 169.623 347.845 168.033V134.328C347.842 132.738 347.093 131.214 345.761 130.089C344.429 128.965 342.623 128.333 340.739 128.331L219.876 128.331Z" fill="white"/>
<path d="M341.03 106.464H220.167C218.128 106.462 216.174 105.777 214.733 104.561C213.292 103.344 212.481 101.695 212.479 99.9748C212.493 89.3184 217.515 79.1019 226.443 71.5666C235.371 64.0314 247.476 59.7928 260.102 59.7808H341.03C343.068 59.7827 345.022 60.4669 346.464 61.6833C347.905 62.8998 348.716 64.5491 348.718 66.2695V99.9746C348.716 101.695 347.905 103.344 346.464 104.561C345.022 105.777 343.068 106.462 341.03 106.464Z" fill="white"/>
<path d="M393.066 168.86H253.934C253.116 168.859 252.332 168.584 251.753 168.096C251.175 167.608 250.85 166.946 250.849 166.256V135.315C250.85 134.625 251.175 133.963 251.753 133.475C252.332 132.987 253.116 132.713 253.934 132.712H393.066C393.884 132.713 394.668 132.987 395.246 133.475C395.825 133.963 396.15 134.625 396.151 135.315V166.256C396.15 166.946 395.825 167.608 395.246 168.096C394.668 168.584 393.884 168.859 393.066 168.86Z" fill="white"/>
<path d="M393.067 169.351H253.934C252.961 169.35 252.029 169.024 251.342 168.444C250.655 167.864 250.268 167.077 250.267 166.256V135.315C250.268 134.495 250.655 133.708 251.342 133.128C252.029 132.548 252.961 132.222 253.934 132.221H393.067C394.039 132.222 394.971 132.548 395.658 133.128C396.345 133.708 396.732 134.495 396.733 135.315V166.256C396.732 167.077 396.345 167.864 395.658 168.444C394.971 169.024 394.039 169.35 393.067 169.351ZM253.934 133.204C253.27 133.204 252.634 133.427 252.165 133.823C251.696 134.219 251.432 134.756 251.431 135.315V166.256C251.432 166.816 251.696 167.353 252.165 167.749C252.634 168.145 253.27 168.368 253.934 168.368H393.067C393.73 168.368 394.366 168.145 394.835 167.749C395.304 167.353 395.568 166.816 395.569 166.256V135.315C395.568 134.756 395.304 134.219 394.835 133.823C394.366 133.427 393.73 133.204 393.067 133.204H253.934Z" fill="#CCCCCC"/>
<path d="M265.764 147.378C268.529 147.378 270.77 145.486 270.77 143.153C270.77 140.82 268.529 138.929 265.764 138.929C263 138.929 260.759 140.82 260.759 143.153C260.759 145.486 263 147.378 265.764 147.378Z" fill="#E6E6E6"/>
<path d="M384.75 153.799H262.25C262.054 153.799 261.859 153.767 261.678 153.704C261.497 153.641 261.332 153.548 261.193 153.432C261.055 153.315 260.945 153.176 260.869 153.023C260.794 152.87 260.756 152.706 260.756 152.541C260.756 152.375 260.794 152.212 260.869 152.059C260.945 151.906 261.055 151.767 261.193 151.65C261.332 151.533 261.497 151.441 261.678 151.378C261.859 151.315 262.054 151.283 262.25 151.283H384.75C384.946 151.283 385.14 151.315 385.321 151.378C385.502 151.441 385.667 151.533 385.806 151.65C385.945 151.767 386.055 151.906 386.13 152.059C386.205 152.212 386.244 152.375 386.244 152.541C386.244 152.706 386.205 152.87 386.13 153.023C386.055 153.176 385.945 153.315 385.806 153.432C385.667 153.548 385.502 153.641 385.321 153.704C385.14 153.767 384.946 153.799 384.75 153.799Z" fill="#E6E6E6"/>
<path d="M372.578 158.77H262.25C261.854 158.77 261.475 158.637 261.196 158.401C260.916 158.165 260.759 157.845 260.759 157.512C260.759 157.178 260.916 156.858 261.196 156.622C261.475 156.386 261.854 156.254 262.25 156.254H372.578C372.973 156.254 373.352 156.386 373.632 156.622C373.911 156.858 374.068 157.178 374.068 157.512C374.068 157.845 373.911 158.165 373.632 158.401C373.352 158.637 372.973 158.77 372.578 158.77Z" fill="#E6E6E6"/>
<path d="M248.523 370.663L214.469 359.207C213.709 358.951 213.101 358.451 212.778 357.817C212.455 357.183 212.443 356.466 212.745 355.825L264.261 246.742C264.564 246.101 265.157 245.588 265.908 245.315C266.659 245.042 267.508 245.032 268.268 245.287L302.322 256.743C303.081 257 303.689 257.5 304.012 258.134C304.335 258.768 304.347 259.484 304.045 260.126L252.53 369.209C252.227 369.85 251.634 370.363 250.883 370.636C250.131 370.908 249.283 370.918 248.523 370.663Z" fill="white"/>
<path d="M248.307 371.12L214.253 359.664C213.35 359.359 212.628 358.765 212.244 358.011C211.86 357.257 211.846 356.406 212.205 355.643L263.72 246.56C264.081 245.798 264.785 245.188 265.678 244.864C266.571 244.54 267.58 244.528 268.484 244.831L302.538 256.287C303.44 256.592 304.163 257.186 304.547 257.94C304.931 258.693 304.945 259.545 304.586 260.308L253.071 369.391C252.71 370.153 252.006 370.763 251.113 371.087C250.22 371.411 249.211 371.423 248.307 371.12ZM213.286 356.007C213.041 356.527 213.051 357.109 213.313 357.623C213.575 358.137 214.068 358.543 214.684 358.751L248.738 370.207C249.355 370.414 250.043 370.406 250.653 370.184C251.262 369.963 251.743 369.547 251.989 369.027L303.505 259.944C303.749 259.423 303.74 258.842 303.478 258.328C303.216 257.813 302.723 257.408 302.107 257.2L268.052 245.744C267.436 245.537 266.747 245.545 266.138 245.766C265.528 245.988 265.048 246.404 264.802 246.924L213.286 356.007Z" fill="#CCCCCC"/>
<path d="M271.372 264.108C274.136 264.108 276.377 262.216 276.377 259.883C276.377 257.55 274.136 255.659 271.372 255.659C268.608 255.659 266.367 257.55 266.367 259.883C266.367 262.216 268.608 264.108 271.372 264.108Z" fill="#E6E6E6"/>
<path d="M237.097 357.815C236.73 357.691 236.436 357.449 236.28 357.143C236.124 356.837 236.118 356.491 236.264 356.181L281.621 260.138C281.693 259.984 281.801 259.844 281.938 259.726C282.074 259.608 282.237 259.513 282.417 259.448C282.597 259.382 282.79 259.348 282.986 259.346C283.181 259.343 283.376 259.374 283.557 259.435C283.739 259.496 283.905 259.587 284.045 259.702C284.186 259.817 284.298 259.955 284.375 260.107C284.452 260.258 284.493 260.421 284.496 260.587C284.499 260.752 284.463 260.916 284.39 261.069L239.033 357.112C238.887 357.422 238.6 357.67 238.237 357.801C237.874 357.933 237.464 357.938 237.097 357.815Z" fill="#E6E6E6"/>
<path d="M247.075 350.113C246.708 349.989 246.414 349.747 246.258 349.441C246.102 349.134 246.096 348.788 246.242 348.478L287.092 261.978C287.164 261.825 287.272 261.684 287.408 261.566C287.545 261.447 287.708 261.352 287.888 261.287C288.068 261.221 288.261 261.186 288.457 261.184C288.653 261.182 288.848 261.212 289.03 261.273C289.212 261.334 289.378 261.425 289.518 261.541C289.658 261.656 289.77 261.794 289.848 261.946C289.925 262.098 289.966 262.261 289.968 262.427C289.971 262.592 289.934 262.756 289.861 262.91L249.011 349.41C248.865 349.719 248.578 349.967 248.215 350.099C247.852 350.231 247.442 350.236 247.075 350.113Z" fill="#E6E6E6"/>
<path d="M332.34 29.1922C339.617 29.1922 345.516 24.2135 345.516 18.0719C345.516 11.9304 339.617 6.95166 332.34 6.95166C325.064 6.95166 319.165 11.9304 319.165 18.0719C319.165 24.2135 325.064 29.1922 332.34 29.1922Z" fill="white"/>
<path d="M338.828 17.6322H332.901V12.6301C332.901 12.5678 332.887 12.506 332.859 12.4484C332.831 12.3908 332.79 12.3384 332.737 12.2943C332.685 12.2501 332.623 12.2151 332.555 12.1912C332.487 12.1673 332.414 12.155 332.34 12.155C332.266 12.155 332.193 12.1673 332.125 12.1912C332.057 12.2151 331.995 12.2501 331.943 12.2943C331.891 12.3384 331.85 12.3908 331.822 12.4484C331.794 12.506 331.779 12.5678 331.78 12.6301V17.6322H325.853C325.704 17.6322 325.562 17.682 325.456 17.7708C325.351 17.8595 325.292 17.9799 325.292 18.1054C325.292 18.2309 325.351 18.3513 325.456 18.44C325.562 18.5288 325.704 18.5786 325.853 18.5786H331.78V23.5808C331.779 23.6431 331.794 23.7049 331.822 23.7625C331.85 23.8201 331.891 23.8725 331.943 23.9166C331.995 23.9608 332.057 23.9958 332.125 24.0197C332.193 24.0436 332.266 24.0559 332.34 24.0559C332.414 24.0559 332.487 24.0436 332.555 24.0197C332.623 23.9958 332.685 23.9608 332.737 23.9166C332.79 23.8725 332.831 23.8201 332.859 23.7625C332.887 23.7049 332.901 23.6431 332.901 23.5808V18.5786H338.828C338.976 18.5786 339.119 18.5288 339.224 18.44C339.329 18.3513 339.388 18.2309 339.388 18.1054C339.388 17.9799 339.329 17.8595 339.224 17.7708C339.119 17.682 338.976 17.6322 338.828 17.6322Z" fill="#E6E6E6"/>
<path d="M494.701 27.2347H450.248C447.356 27.2347 444.583 26.2652 442.538 24.5393C440.493 22.8135 439.345 20.4727 439.345 18.032C439.345 15.5913 440.493 13.2506 442.538 11.5248C444.583 9.79892 447.356 8.82935 450.248 8.82935H494.701C497.593 8.82935 500.366 9.79892 502.411 11.5248C504.456 13.2506 505.605 15.5913 505.605 18.032C505.605 20.4727 504.456 22.8135 502.411 24.5393C500.366 26.2652 497.593 27.2347 494.701 27.2347Z" fill="#348E91"/>
<path d="M342.814 14.2422L342.79 15.658L428.692 16.7053L428.716 15.2895L342.814 14.2422Z" fill="#3F3D56"/>
<path d="M339.208 18.7907C338.176 18.7927 337.179 18.474 336.407 17.8953C335.636 17.3166 335.144 16.5184 335.025 15.653C334.906 14.7877 335.169 13.9157 335.763 13.2034C336.358 12.4912 337.242 11.9885 338.247 11.7913C339.253 11.5941 340.309 11.7161 341.214 12.1342C342.12 12.5522 342.811 13.237 343.157 14.0579C343.503 14.8787 343.478 15.7783 343.088 16.5848C342.698 17.3914 341.97 18.0485 341.042 18.4309C340.471 18.6665 339.844 18.7896 339.208 18.7907ZM339.202 13.1244C338.656 13.1244 338.124 13.2746 337.687 13.5523C337.25 13.83 336.932 14.2201 336.782 14.6637C336.631 15.1073 336.655 15.5803 336.851 16.0111C337.047 16.442 337.404 16.8073 337.867 17.0519C338.331 17.2965 338.876 17.4071 339.421 17.367C339.966 17.3269 340.48 17.1382 340.887 16.8295C341.293 16.5208 341.569 16.1088 341.674 15.6558C341.778 15.2029 341.705 14.7335 341.466 14.3186C341.259 13.9609 340.937 13.659 340.536 13.448C340.136 13.2369 339.674 13.1248 339.202 13.1244Z" fill="#3F3D56"/>
<path d="M81.8541 39.2689C81.8573 36.829 83.0071 34.4898 85.0512 32.7646C87.0954 31.0393 89.8669 30.0689 92.7577 30.0662H137.211C140.102 30.0662 142.876 31.0357 144.921 32.7616C146.965 34.4874 148.114 36.8281 148.114 39.2689C148.114 41.7096 146.965 44.0503 144.921 45.7761C142.876 47.502 140.102 48.4715 137.211 48.4715H92.7577C89.8669 48.4688 87.0954 47.4984 85.0512 45.7731C83.0071 44.0479 81.8573 41.7087 81.8541 39.2689Z" fill="#348E91"/>
<path d="M244.646 35.4813L158.743 36.5283L158.768 37.9441L244.67 36.8971L244.646 35.4813Z" fill="#3F3D56"/>
<path d="M246.417 39.6677C245.498 39.2873 244.778 38.6351 244.393 37.8353C244.008 37.0355 243.985 36.1441 244.328 35.3309C244.672 34.5177 245.357 33.8395 246.255 33.4256C247.153 33.0117 248.199 32.891 249.196 33.0864C250.192 33.2819 251.068 33.7798 251.658 34.4854C252.247 35.191 252.508 36.055 252.391 36.9126C252.275 37.7703 251.788 38.5617 251.025 39.1362C250.261 39.7106 249.274 40.0279 248.251 40.0276C247.615 40.0273 246.987 39.9042 246.417 39.6677ZM247.435 34.4781C247.122 34.5682 246.834 34.7098 246.586 34.8947C246.339 35.0796 246.137 35.3041 245.993 35.5551C245.737 35.9978 245.671 36.5021 245.805 36.9814C245.94 37.4607 246.268 37.8857 246.732 38.184C247.197 38.4822 247.77 38.6352 248.353 38.6169C248.936 38.5986 249.494 38.4101 249.931 38.0836C250.368 37.757 250.657 37.3127 250.749 36.8262C250.842 36.3398 250.731 35.8414 250.437 35.4161C250.142 34.9907 249.682 34.6647 249.135 34.4937C248.587 34.3226 247.987 34.3171 247.435 34.4781Z" fill="#3F3D56"/>
<path d="M78.4991 317.473C78.5023 315.033 79.6521 312.694 81.6963 310.969C83.7404 309.244 86.5119 308.273 89.4027 308.271H133.856C136.747 308.271 139.521 309.24 141.566 310.966C143.61 312.692 144.759 315.032 144.759 317.473C144.759 319.914 143.61 322.255 141.566 323.98C139.521 325.706 136.747 326.676 133.856 326.676H89.4027C86.5119 326.673 83.7404 325.703 81.6963 323.977C79.6521 322.252 78.5023 319.913 78.4991 317.473Z" fill="#348E91"/>
<path d="M241.29 313.687L155.387 314.734L155.411 316.15L241.314 315.103L241.29 313.687Z" fill="#3F3D56"/>
<path d="M243.062 317.872C242.143 317.492 241.423 316.839 241.038 316.04C240.653 315.24 240.63 314.348 240.973 313.535C241.317 312.722 242.002 312.044 242.9 311.63C243.798 311.216 244.844 311.095 245.841 311.291C246.837 311.486 247.713 311.984 248.303 312.69C248.892 313.395 249.153 314.259 249.036 315.117C248.92 315.975 248.433 316.766 247.67 317.341C246.906 317.915 245.919 318.232 244.896 318.232C244.26 318.232 243.633 318.109 243.062 317.872ZM244.08 312.682C243.767 312.773 243.479 312.914 243.231 313.099C242.984 313.284 242.782 313.508 242.638 313.76C242.382 314.202 242.316 314.706 242.45 315.186C242.585 315.665 242.913 316.09 243.377 316.388C243.842 316.687 244.415 316.84 244.998 316.821C245.581 316.803 246.139 316.614 246.576 316.288C247.013 315.961 247.302 315.517 247.395 315.031C247.487 314.544 247.376 314.046 247.082 313.62C246.787 313.195 246.327 312.869 245.78 312.698C245.233 312.527 244.632 312.521 244.08 312.682Z" fill="#3F3D56"/>
<path d="M90.2415 141.914C90.2447 139.474 91.3944 137.135 93.4386 135.41C95.4827 133.685 98.2542 132.714 101.145 132.712H145.598C148.49 132.712 151.263 133.681 153.308 135.407C155.353 137.133 156.502 139.474 156.502 141.914C156.502 144.355 155.353 146.696 153.308 148.422C151.263 150.147 148.49 151.117 145.598 151.117H101.145C98.2542 151.114 95.4827 150.144 93.4386 148.419C91.3944 146.693 90.2447 144.354 90.2415 141.914Z" fill="#348E91"/>
<path d="M253.033 138.127L167.13 139.174L167.155 140.59L253.057 139.543L253.033 138.127Z" fill="#3F3D56"/>
<path d="M254.804 142.313C253.886 141.933 253.165 141.281 252.78 140.481C252.395 139.681 252.372 138.79 252.715 137.976C253.059 137.163 253.745 136.485 254.642 136.071C255.54 135.657 256.587 135.536 257.583 135.732C258.579 135.927 259.456 136.425 260.045 137.131C260.634 137.837 260.895 138.7 260.779 139.558C260.662 140.416 260.175 141.207 259.412 141.782C258.648 142.356 257.661 142.673 256.638 142.673C256.002 142.673 255.375 142.55 254.804 142.313ZM255.822 137.124C255.51 137.214 255.221 137.355 254.974 137.54C254.726 137.725 254.524 137.95 254.38 138.201C254.124 138.643 254.058 139.148 254.193 139.627C254.327 140.106 254.655 140.531 255.12 140.829C255.584 141.128 256.157 141.281 256.74 141.262C257.323 141.244 257.881 141.056 258.318 140.729C258.755 140.403 259.045 139.958 259.137 139.472C259.229 138.985 259.119 138.487 258.824 138.062C258.53 137.636 258.07 137.31 257.522 137.139C256.975 136.968 256.374 136.963 255.822 137.124Z" fill="#3F3D56"/>
<path d="M482.959 85.9903H438.506C435.614 85.9903 432.841 85.0208 430.796 83.2949C428.751 81.5691 427.603 79.2284 427.603 76.7876C427.603 74.3469 428.751 72.0062 430.796 70.2804C432.841 68.5545 435.614 67.585 438.506 67.585H482.959C485.851 67.585 488.624 68.5545 490.669 70.2804C492.714 72.0062 493.863 74.3469 493.863 76.7876C493.863 79.2284 492.714 81.5691 490.669 83.2949C488.624 85.0208 485.851 85.9903 482.959 85.9903Z" fill="#348E91"/>
<path d="M331.071 72.9978L331.047 74.4136L416.95 75.4609L416.974 74.0451L331.071 72.9978Z" fill="#3F3D56"/>
<path d="M327.466 77.5463C326.434 77.5483 325.437 77.2296 324.665 76.6509C323.894 76.0722 323.402 75.274 323.283 74.4086C323.164 73.5433 323.427 72.6713 324.021 71.959C324.615 71.2468 325.5 70.7441 326.505 70.5469C327.51 70.3497 328.566 70.4717 329.472 70.8898C330.378 71.3078 331.069 71.9926 331.415 72.8135C331.76 73.6344 331.736 74.5339 331.346 75.3404C330.956 76.147 330.227 76.8041 329.3 77.1865C328.729 77.4221 328.102 77.5452 327.466 77.5463ZM327.46 71.88C326.913 71.88 326.381 72.0302 325.945 72.3079C325.508 72.5856 325.19 72.9757 325.039 73.4193C324.889 73.8629 324.913 74.3359 325.109 74.7667C325.305 75.1976 325.661 75.5629 326.125 75.8075C326.589 76.0521 327.134 76.1627 327.679 76.1226C328.224 76.0825 328.738 75.8938 329.144 75.5851C329.551 75.2764 329.827 74.8644 329.932 74.4114C330.036 73.9585 329.963 73.4891 329.724 73.0743C329.516 72.7165 329.194 72.4146 328.794 72.2036C328.394 71.9925 327.932 71.8804 327.46 71.88Z" fill="#3F3D56"/>
<path d="M506.732 190.813L493.821 191.296C490.911 197.974 492.973 214.186 492.973 214.186L486.189 240.827C485.479 241.424 484.968 242.168 484.706 242.985C484.445 243.802 484.444 244.662 484.702 245.48C484.96 246.297 485.469 247.043 486.177 247.642C486.885 248.241 487.767 248.672 488.735 248.891C489.703 249.11 490.723 249.111 491.691 248.892C492.659 248.673 493.542 248.243 494.251 247.645C494.959 247.046 495.469 246.301 495.728 245.484C495.987 244.666 495.986 243.806 495.725 242.989L509.501 211.043L506.732 190.813Z" fill="#9E616A"/>
<path d="M498.143 161.675C500.146 161.62 502.138 161.937 503.979 162.605C505.82 163.273 507.464 164.276 508.793 165.541C510.123 166.806 511.106 168.303 511.672 169.925C512.238 171.548 512.374 173.255 512.069 174.927L510.829 181.734C510.829 181.734 514.376 204.907 510.051 211.213L501.802 230.066L488.344 229.485L492.065 208.898C492.065 208.898 493.004 198.708 489.569 194.397C487.466 191.757 485.328 181.822 484.962 173.522C484.904 172.013 485.199 170.509 485.83 169.097C486.462 167.685 487.417 166.391 488.641 165.291C489.865 164.19 491.335 163.305 492.965 162.684C494.596 162.064 496.355 161.721 498.143 161.675Z" fill="#3F3D56"/>
<path d="M488.813 364.28L480.43 364.279L476.441 336.985H488.816L488.813 364.28Z" fill="#9E616A"/>
<path d="M489.109 371.661L463.327 371.66V371.385C463.327 369.139 464.385 366.985 466.266 365.397C468.148 363.808 470.701 362.916 473.362 362.916L478.072 359.9L486.859 362.916L489.109 362.916L489.109 371.661Z" fill="#2F2E41"/>
<path d="M458.52 364.28L450.137 364.279L446.148 336.985H458.523L458.52 364.28Z" fill="#9E616A"/>
<path d="M458.816 371.661L433.034 371.66V371.385C433.035 369.139 434.092 366.985 435.974 365.397C437.856 363.808 440.408 362.916 443.069 362.916L447.779 359.9L456.566 362.916L458.817 362.916L458.816 371.661Z" fill="#2F2E41"/>
<path d="M428.078 289.9C433.057 303.287 434.968 313.79 438.763 327.046C440.261 329.373 446.712 348.711 446.712 348.711C446.712 348.711 456.38 349.606 459.799 347.322C463.219 345.039 459.695 333.737 459.695 333.737C461.949 325.192 456.393 311.73 456.064 303.446C456.748 299.97 453.122 296.985 452.79 293.67C455.187 292.131 466.846 267.975 469.224 261.226C468.002 281.792 478.722 328.752 473.074 344.352C469.792 353.416 477.42 351.401 488.715 351.839C493.751 350.577 491.702 343.301 491.702 343.301C491.702 343.301 495.122 338.495 495.122 336.632C497.57 327.912 500.512 308.944 499.709 304.681C500.077 300.157 500.259 254.954 504.354 239.121C507.083 226.508 473.641 223.732 464.023 220.725C447.975 214.199 450.683 223.476 442.232 232.023C434.083 246.755 429.283 273.063 428.078 289.9Z" fill="#2F2E41"/>
<path d="M465.541 157.313L475.29 148.048L490.695 149.492L500.558 161.142C511.459 163.26 513.469 170.782 511.555 180.083C507.728 198.684 498.28 211.687 502.574 220.864C509.094 234.796 505.933 245.517 490.327 243.564C474.721 241.611 438.759 228.712 448.895 220.157C459.032 211.601 449.969 207.116 449.969 207.116L457.086 174.409C455.263 166.067 455.544 158.186 465.541 157.313Z" fill="#3F3D56"/>
<path d="M466.793 186.676L454.506 183.293C448.998 188.68 444.167 204.467 444.167 204.467L426.71 227.389C425.796 227.737 425.007 228.281 424.422 228.968C423.837 229.655 423.476 230.46 423.377 231.302C423.278 232.144 423.443 232.993 423.856 233.764C424.269 234.535 424.916 235.2 425.73 235.693C426.545 236.186 427.499 236.489 428.497 236.572C429.494 236.655 430.5 236.514 431.413 236.165C432.326 235.815 433.113 235.269 433.696 234.58C434.279 233.892 434.637 233.087 434.734 232.245L460.949 206.434L466.793 186.676Z" fill="#9E616A"/>
<path d="M470.903 156.851C472.801 157.394 474.533 158.283 475.978 159.455C477.422 160.627 478.543 162.054 479.26 163.633C479.977 165.212 480.273 166.905 480.126 168.592C479.98 170.279 479.395 171.918 478.413 173.392L474.413 179.395C474.413 179.395 468.071 202.139 461.393 206.757L445.811 221.954L433.455 217.413L445.523 199.247C445.523 199.247 450.651 189.988 449.233 184.933C448.365 181.837 450.507 171.903 453.625 164.024C454.2 162.595 455.103 161.275 456.283 160.141C457.463 159.006 458.896 158.079 460.501 157.413C462.106 156.747 463.851 156.354 465.636 156.258C467.421 156.161 469.21 156.363 470.903 156.851Z" fill="#3F3D56"/>
<path d="M486.733 146.072C495.528 146.072 502.658 140.055 502.658 132.632C502.658 125.209 495.528 119.191 486.733 119.191C477.938 119.191 470.809 125.209 470.809 132.632C470.809 140.055 477.938 146.072 486.733 146.072Z" fill="#A0616A"/>
<path d="M472.869 120.538C473.107 119.422 473.64 118.365 474.428 117.446C474.825 117.047 475.317 116.724 475.871 116.498C476.426 116.271 477.032 116.146 477.648 116.13C478.264 116.114 478.877 116.208 479.447 116.406C480.017 116.604 480.532 116.901 480.957 117.278C480.708 116.667 480.635 116.015 480.745 115.376C481.908 115.846 483.152 116.159 484.431 116.301L481.605 113.811C487.411 111.633 492.208 111.751 495.672 114.901C496.664 115.803 498.694 115.173 499.76 116.104C500.826 117.035 500.885 119.022 499.537 119.541C502.193 118.697 505.242 119.922 506.993 121.974C508.745 124.027 509.39 126.734 509.509 129.36C509.662 132.766 508.91 136.391 506.447 138.899C504.837 140.538 502.64 141.561 500.858 143.036L500.805 143.08C498.853 144.77 496.406 145.994 493.712 146.627C491.018 147.26 488.174 147.281 485.468 146.686C485.164 146.616 484.862 146.537 484.559 146.464C483.043 147.043 481.155 146.252 480.198 144.965C479.178 143.593 478.976 141.838 478.933 140.166C478.877 137.979 479.036 135.792 479.41 133.627C479.832 131.19 480.212 128.068 477.925 126.844C476.145 125.891 473.932 126.832 472.14 127.765C471.967 125.339 472.213 122.905 472.869 120.538Z" fill="#2F2E41"/>
<path d="M629.001 372.782L0.998771 373C0.734409 372.999 0.481142 372.91 0.29448 372.752C0.107818 372.594 0.00299072 372.38 0.00299072 372.157C0.00299072 371.934 0.107818 371.72 0.29448 371.562C0.481142 371.404 0.734409 371.315 0.998771 371.314L629.001 371.097C629.266 371.097 629.52 371.185 629.708 371.344C629.895 371.502 630 371.716 630 371.94C630 372.163 629.895 372.377 629.708 372.536C629.52 372.694 629.266 372.782 629.001 372.782Z" fill="#CACACA"/>
</g>
<defs>
<clipPath id="clip0_14_175">
<rect width="630" height="373" fill="white"/>
</clipPath>
</defs>
</svg>
