<svg width="311" height="189" viewBox="0 0 311 189" fill="none" xmlns="http://www.w3.org/2000/svg">
<g clip-path="url(#clip0_3_638)">
<path d="M311 77.6242H310.475V63.7122C310.475 62.6548 310.259 61.6077 309.841 60.6308C309.422 59.6539 308.809 58.7663 308.036 58.0186C307.262 57.2709 306.344 56.6778 305.334 56.2732C304.324 55.8685 303.241 55.6603 302.147 55.6603H271.663C270.569 55.6603 269.486 55.8685 268.476 56.2732C267.465 56.6778 266.547 57.2709 265.774 58.0186C265.001 58.7663 264.387 59.6539 263.969 60.6308C263.55 61.6077 263.335 62.6548 263.335 63.7122V140.034C263.335 141.092 263.55 142.139 263.969 143.116C264.387 144.093 265.001 144.98 265.774 145.728C266.547 146.476 267.465 147.069 268.476 147.473C269.486 147.878 270.569 148.086 271.663 148.086H302.147C303.241 148.086 304.324 147.878 305.334 147.473C306.344 147.069 307.262 146.476 308.036 145.728C308.809 144.98 309.422 144.093 309.841 143.116C310.259 142.139 310.475 141.092 310.475 140.034V87.527H311V77.6242Z" fill="#3F3D56"/>
<path d="M308.703 64.1853V140.397C308.703 141.992 308.047 143.521 306.881 144.649C305.714 145.777 304.132 146.41 302.483 146.411H271.852C271.035 146.41 270.227 146.255 269.472 145.953C268.718 145.65 268.032 145.207 267.455 144.649C266.878 144.09 266.42 143.427 266.107 142.698C265.795 141.968 265.634 141.186 265.635 140.397V64.1853C265.635 62.591 266.29 61.0621 267.456 59.9347C268.622 58.8074 270.203 58.1741 271.852 58.1741H275.568C275.386 58.6078 275.316 59.0782 275.366 59.5439C275.416 60.0097 275.583 60.4564 275.853 60.845C276.123 61.2336 276.488 61.552 276.915 61.7724C277.343 61.9927 277.819 62.1082 278.304 62.1087H295.768C296.253 62.1096 296.73 61.995 297.159 61.775C297.587 61.555 297.952 61.2365 298.222 60.8475C298.493 60.4585 298.66 60.0111 298.709 59.5448C298.758 59.0785 298.688 58.6077 298.504 58.1741H302.483C304.132 58.174 305.714 58.8072 306.88 59.9345C308.046 61.0617 308.702 62.5907 308.703 64.1853Z" fill="#D0CDE1"/>
<path d="M302.904 97.1923H267.296V106.482H302.904V97.1923Z" fill="#348E91"/>
<path d="M304.317 104.843H269.84C269.615 104.843 269.399 104.756 269.241 104.603C269.082 104.449 268.992 104.241 268.992 104.023V95.8262C268.992 95.6089 269.082 95.4005 269.241 95.2468C269.399 95.0931 269.615 95.0067 269.84 95.0065H304.317C304.542 95.0067 304.757 95.0931 304.916 95.2468C305.075 95.4005 305.164 95.6089 305.165 95.8262V104.023C305.164 104.241 305.075 104.449 304.916 104.603C304.757 104.756 304.542 104.843 304.317 104.843ZM269.84 95.5529C269.765 95.553 269.693 95.5818 269.64 95.6331C269.587 95.6843 269.557 95.7537 269.557 95.8262V104.023C269.557 104.096 269.587 104.165 269.64 104.216C269.693 104.268 269.765 104.296 269.84 104.297H304.317C304.392 104.296 304.464 104.268 304.517 104.216C304.57 104.165 304.599 104.096 304.599 104.023V95.8262C304.599 95.7537 304.57 95.6843 304.517 95.6331C304.464 95.5818 304.392 95.553 304.317 95.5529H269.84Z" fill="#3F3D56"/>
<path d="M275.774 102.384H271.253V102.93H275.774V102.384Z" fill="#3F3D56"/>
<path d="M281.992 102.384H277.47V102.93H281.992V102.384Z" fill="#3F3D56"/>
<path d="M288.209 102.384H283.687V102.93H288.209V102.384Z" fill="#3F3D56"/>
<path d="M294.426 102.384H289.904V102.93H294.426V102.384Z" fill="#3F3D56"/>
<path d="M300.643 102.384H296.121V102.93H300.643V102.384Z" fill="#3F3D56"/>
<path opacity="0.1" d="M308.703 132.648V140.397C308.703 141.991 308.047 143.521 306.881 144.649C305.714 145.777 304.132 146.41 302.483 146.41H271.852C271.035 146.41 270.227 146.255 269.472 145.952C268.718 145.65 268.032 145.207 267.455 144.649C266.878 144.09 266.42 143.427 266.107 142.698C265.795 141.968 265.634 141.186 265.635 140.397V104.75L308.703 132.648Z" fill="black"/>
<path d="M161.887 125.609H28.2178V189H161.887V125.609Z" fill="#D0CDE1"/>
<path opacity="0.1" d="M127.904 189H28.783C28.6332 189 28.4897 188.942 28.3838 188.84C28.2779 188.737 28.2182 188.598 28.2178 188.454V126.155C28.2182 126.011 28.2779 125.872 28.3838 125.77C28.4897 125.667 28.6332 125.609 28.783 125.609H30.0377L127.904 189Z" fill="black"/>
<path d="M297.252 134.079H90.1069V134.626H297.252V134.079Z" fill="#3F3D56"/>
<path d="M155.597 1.17977H96.3954V0H69.5512V1.17977H10.1056C9.57973 1.17977 9.05899 1.27992 8.57314 1.4745C8.08729 1.66908 7.64583 1.95428 7.27398 2.31382C6.90212 2.67336 6.60715 3.10019 6.4059 3.56995C6.20465 4.0397 6.10107 4.54319 6.10107 5.05165V83.4313C6.10107 84.4582 6.52298 85.443 7.27397 86.1692C8.02497 86.8953 9.04354 87.3032 10.1056 87.3032H155.597C156.659 87.3032 157.678 86.8953 158.429 86.1692C159.18 85.443 159.601 84.4582 159.601 83.4313V5.05165C159.601 4.54319 159.498 4.0397 159.297 3.56995C159.095 3.10019 158.8 2.67336 158.429 2.31382C158.057 1.95428 157.615 1.66908 157.129 1.4745C156.644 1.27992 156.123 1.17977 155.597 1.17977Z" fill="#3F3D56"/>
<path d="M154.231 8.02136H11.4709V85.8885H154.231V8.02136Z" fill="#D0CDE1"/>
<path d="M82.7291 5.89884C83.5378 5.89884 84.1934 5.265 84.1934 4.48311C84.1934 3.70123 83.5378 3.06738 82.7291 3.06738C81.9204 3.06738 81.2649 3.70123 81.2649 4.48311C81.2649 5.265 81.9204 5.89884 82.7291 5.89884Z" fill="#348E91"/>
<path d="M53.9343 37.0801H50.5431C50.3183 37.0799 50.1028 36.9935 49.9439 36.8398C49.785 36.6861 49.6956 36.4777 49.6953 36.2604V32.9816C49.6956 32.7642 49.785 32.5559 49.9439 32.4022C50.1028 32.2485 50.3183 32.1621 50.5431 32.1619H53.9343C54.1591 32.1621 54.3746 32.2485 54.5335 32.4022C54.6924 32.5559 54.7818 32.7642 54.7821 32.9816V36.2604C54.7818 36.4777 54.6924 36.6861 54.5335 36.8398C54.3746 36.9935 54.1591 37.0799 53.9343 37.0801ZM50.5431 32.7083C50.4682 32.7084 50.3964 32.7373 50.3434 32.7885C50.2904 32.8397 50.2606 32.9091 50.2605 32.9816V36.2604C50.2606 36.3329 50.2904 36.4023 50.3434 36.4535C50.3964 36.5047 50.4682 36.5336 50.5431 36.5337H53.9343C54.0092 36.5336 54.081 36.5047 54.134 36.4535C54.187 36.4023 54.2168 36.3329 54.2169 36.2604V32.9816C54.2168 32.9091 54.187 32.8397 54.134 32.7885C54.081 32.7373 54.0092 32.7084 53.9343 32.7083H50.5431Z" fill="#3F3D56"/>
<path d="M114.411 36.5337H49.978V37.0802H114.411V36.5337Z" fill="#3F3D56"/>
<path d="M112.715 51.5617H97.7371V55.9335H112.715V51.5617Z" fill="#348E91"/>
<path d="M113.845 54.8406H99.9979C99.7732 54.8403 99.5577 54.7539 99.3987 54.6002C99.2398 54.4465 99.1504 54.2382 99.1501 54.0209V50.742C99.1504 50.5247 99.2398 50.3163 99.3987 50.1627C99.5577 50.009 99.7732 49.9225 99.9979 49.9223H113.845C114.07 49.9225 114.286 50.009 114.444 50.1627C114.603 50.3163 114.693 50.5247 114.693 50.742V54.0209C114.693 54.2382 114.603 54.4465 114.444 54.6002C114.286 54.7539 114.07 54.8403 113.845 54.8406ZM99.9979 50.4688C99.923 50.4689 99.8512 50.4977 99.7982 50.5489C99.7452 50.6001 99.7154 50.6696 99.7153 50.742V54.0209C99.7154 54.0933 99.7452 54.1627 99.7982 54.214C99.8512 54.2652 99.923 54.294 99.9979 54.2941H113.845C113.92 54.294 113.992 54.2652 114.045 54.214C114.098 54.1627 114.128 54.0933 114.128 54.0209V50.742C114.128 50.6696 114.098 50.6001 114.045 50.5489C113.992 50.4977 113.92 50.4689 113.845 50.4688H99.9979Z" fill="#3F3D56"/>
<path d="M227.167 56.48H198.907V75.6066H227.167V56.48Z" fill="#348E91"/>
<path d="M229.993 74.1038H202.864C202.564 74.1035 202.277 73.9882 202.065 73.7833C201.853 73.5784 201.734 73.3006 201.733 73.0108V54.9772C201.734 54.6874 201.853 54.4096 202.065 54.2047C202.277 53.9998 202.564 53.8845 202.864 53.8842H229.993C230.293 53.8845 230.58 53.9998 230.792 54.2047C231.004 54.4096 231.123 54.6874 231.124 54.9772V73.0108C231.123 73.3006 231.004 73.5784 230.792 73.7833C230.58 73.9882 230.293 74.1035 229.993 74.1038ZM202.864 54.9772V73.0108H229.994L229.993 54.9772H202.864Z" fill="#3F3D56"/>
<path d="M226.885 54.2941H225.754C225.754 51.9027 224.772 49.6092 223.023 47.9182C221.274 46.2273 218.902 45.2773 216.429 45.2773C213.955 45.2773 211.583 46.2273 209.834 47.9182C208.085 49.6092 207.103 51.9027 207.103 54.2941H205.972C205.972 51.6128 207.074 49.0414 209.035 47.1454C210.996 45.2495 213.655 44.1843 216.429 44.1843C219.202 44.1843 221.861 45.2495 223.822 47.1454C225.783 49.0414 226.885 51.6128 226.885 54.2941Z" fill="#3F3D56"/>
<path d="M219.255 61.8081C219.255 61.3323 219.127 60.8646 218.883 60.4513C218.64 60.038 218.288 59.6934 217.865 59.4516C217.441 59.2098 216.959 59.0792 216.467 59.0728C215.975 59.0663 215.49 59.1842 215.059 59.4148C214.629 59.6453 214.268 59.9806 214.013 60.3874C213.757 60.7941 213.616 61.2583 213.603 61.7339C213.591 62.2096 213.707 62.6802 213.94 63.0993C214.173 63.5183 214.515 63.8712 214.933 64.1231V67.0558C214.933 67.2458 214.971 67.4339 215.046 67.6094C215.122 67.7849 215.232 67.9444 215.371 68.0787C215.51 68.213 215.675 68.3196 215.856 68.3923C216.038 68.465 216.232 68.5024 216.429 68.5024C216.825 68.5024 217.206 68.35 217.487 68.0787C217.767 67.8074 217.925 67.4395 217.925 67.0558V64.1231C218.332 63.8782 218.667 63.5371 218.9 63.1321C219.132 62.7271 219.255 62.2714 219.255 61.8081Z" fill="#3F3D56"/>
<path d="M84.8788 153.752H80.3572V154.299H84.8788V153.752Z" fill="#3F3D56"/>
<path d="M91.096 153.752H86.5745V154.299H91.096V153.752Z" fill="#3F3D56"/>
<path d="M97.3133 153.752H92.7917V154.299H97.3133V153.752Z" fill="#3F3D56"/>
<path d="M103.53 153.752H99.0088V154.299H103.53V153.752Z" fill="#3F3D56"/>
<path d="M109.748 153.752H105.226V154.299H109.748V153.752Z" fill="#3F3D56"/>
<path d="M167.821 184.355H35.2827C34.983 184.355 34.6957 184.24 34.4838 184.035C34.2719 183.83 34.1527 183.552 34.1523 183.262V120.964C34.1527 120.674 34.2719 120.396 34.4838 120.192C34.6957 119.987 34.983 119.871 35.2827 119.871H167.821C168.121 119.871 168.408 119.987 168.62 120.192C168.832 120.396 168.951 120.674 168.952 120.964V183.262C168.951 183.552 168.832 183.83 168.62 184.035C168.408 184.24 168.121 184.355 167.821 184.355ZM35.2827 120.964V183.262H167.822L167.821 120.964H35.2827Z" fill="#3F3D56"/>
<path d="M41.2173 130.254C42.1538 130.254 42.9129 129.52 42.9129 128.615C42.9129 127.709 42.1538 126.975 41.2173 126.975C40.2809 126.975 39.5217 127.709 39.5217 128.615C39.5217 129.52 40.2809 130.254 41.2173 130.254Z" fill="#3F3D56"/>
<path d="M47.1519 130.254C48.0883 130.254 48.8475 129.52 48.8475 128.615C48.8475 127.709 48.0883 126.975 47.1519 126.975C46.2154 126.975 45.4563 127.709 45.4563 128.615C45.4563 129.52 46.2154 130.254 47.1519 130.254Z" fill="#3F3D56"/>
<path d="M53.0865 130.254C54.0229 130.254 54.7821 129.52 54.7821 128.615C54.7821 127.709 54.0229 126.975 53.0865 126.975C52.15 126.975 51.3909 127.709 51.3909 128.615C51.3909 129.52 52.15 130.254 53.0865 130.254Z" fill="#3F3D56"/>
<path d="M114.128 157.578H75.9769C75.7522 157.577 75.5367 157.491 75.3777 157.337C75.2188 157.184 75.1294 156.975 75.1292 156.758V147.468C75.1294 147.251 75.2188 147.042 75.3777 146.889C75.5367 146.735 75.7522 146.648 75.9769 146.648H114.128C114.353 146.648 114.568 146.735 114.727 146.889C114.886 147.042 114.975 147.251 114.976 147.468V156.758C114.975 156.975 114.886 157.184 114.727 157.337C114.568 157.491 114.353 157.577 114.128 157.578ZM75.9769 147.195C75.902 147.195 75.8302 147.224 75.7772 147.275C75.7242 147.326 75.6944 147.395 75.6943 147.468V156.758C75.6944 156.83 75.7242 156.9 75.7772 156.951C75.8302 157.002 75.902 157.031 75.9769 157.031H114.128C114.203 157.031 114.275 157.002 114.327 156.951C114.38 156.9 114.41 156.83 114.41 156.758V147.468C114.41 147.395 114.38 147.326 114.327 147.275C114.275 147.224 114.203 147.195 114.128 147.195H75.9769Z" fill="#3F3D56"/>
<path d="M123.736 157.851C126.546 157.851 128.823 155.649 128.823 152.933C128.823 150.216 126.546 148.014 123.736 148.014C120.927 148.014 118.649 150.216 118.649 152.933C118.649 155.649 120.927 157.851 123.736 157.851Z" fill="#348E91"/>
<path d="M125.432 157.305C124.37 157.305 123.332 157 122.449 156.43C121.566 155.859 120.878 155.048 120.471 154.1C120.065 153.151 119.958 152.107 120.166 151.1C120.373 150.093 120.884 149.168 121.635 148.442C122.386 147.716 123.343 147.222 124.384 147.021C125.426 146.821 126.506 146.924 127.487 147.317C128.468 147.71 129.306 148.375 129.896 149.229C130.486 150.082 130.801 151.086 130.801 152.113C130.8 153.489 130.233 154.809 129.227 155.782C128.22 156.755 126.855 157.303 125.432 157.305ZM125.432 147.468C124.482 147.468 123.553 147.74 122.763 148.251C121.973 148.761 121.357 149.487 120.993 150.335C120.63 151.184 120.535 152.118 120.72 153.019C120.905 153.92 121.363 154.748 122.035 155.398C122.707 156.047 123.563 156.49 124.495 156.669C125.427 156.848 126.393 156.756 127.27 156.404C128.148 156.053 128.899 155.458 129.426 154.694C129.954 153.93 130.236 153.032 130.236 152.113C130.235 150.881 129.728 149.701 128.827 148.83C127.927 147.959 126.706 147.469 125.432 147.468Z" fill="#3F3D56"/>
<path d="M125.507 154.052L122.771 151.406L123.57 150.634L125.356 152.36L130.339 145.514L131.263 146.143L125.507 154.052Z" fill="#3F3D56"/>
<path opacity="0.1" d="M122.58 85.8885H11.4709V13.9206L122.58 85.8885Z" fill="black"/>
<path d="M163.61 84.4717H149.677V83.5012C149.677 83.4759 149.672 83.4509 149.662 83.4275C149.652 83.4042 149.637 83.383 149.619 83.3651C149.6 83.3472 149.578 83.333 149.554 83.3234C149.53 83.3137 149.504 83.3087 149.478 83.3087H144.701C144.675 83.3087 144.649 83.3137 144.625 83.3234C144.601 83.333 144.579 83.3472 144.56 83.3651C144.542 83.383 144.527 83.4042 144.517 83.4275C144.507 83.4509 144.502 83.4759 144.502 83.5012V84.4717H141.517V83.5012C141.517 83.4759 141.511 83.4509 141.501 83.4275C141.491 83.4042 141.477 83.383 141.458 83.3651C141.44 83.3472 141.418 83.333 141.394 83.3234C141.37 83.3137 141.344 83.3087 141.318 83.3087H136.541C136.514 83.3087 136.489 83.3137 136.464 83.3234C136.44 83.333 136.418 83.3472 136.4 83.3651C136.381 83.383 136.367 83.4042 136.357 83.4275C136.347 83.4509 136.342 83.4759 136.342 83.5012V84.4717H133.356V83.5012C133.356 83.4759 133.351 83.4509 133.341 83.4275C133.331 83.4042 133.316 83.383 133.298 83.3651C133.279 83.3472 133.257 83.333 133.233 83.3234C133.209 83.3137 133.183 83.3087 133.157 83.3087H128.38C128.354 83.3087 128.328 83.3137 128.304 83.3234C128.28 83.333 128.258 83.3472 128.239 83.3651C128.221 83.383 128.206 83.4042 128.196 83.4275C128.186 83.4509 128.181 83.4759 128.181 83.5012V84.4717H125.195V83.5012C125.195 83.4759 125.19 83.4509 125.18 83.4275C125.17 83.4042 125.156 83.383 125.137 83.3651C125.119 83.3472 125.097 83.333 125.073 83.3234C125.048 83.3137 125.022 83.3087 124.996 83.3087H120.219C120.193 83.3087 120.167 83.3137 120.143 83.3234C120.119 83.333 120.097 83.3472 120.079 83.3651C120.06 83.383 120.046 83.4042 120.036 83.4275C120.026 83.4509 120.02 83.4759 120.02 83.5012V84.4717H117.035V83.5012C117.035 83.4759 117.03 83.4509 117.02 83.4275C117.01 83.4042 116.995 83.383 116.977 83.3651C116.958 83.3472 116.936 83.333 116.912 83.3234C116.888 83.3137 116.862 83.3087 116.836 83.3087H112.059C112.033 83.3087 112.007 83.3137 111.983 83.3234C111.959 83.333 111.937 83.3472 111.918 83.3651C111.9 83.383 111.885 83.4042 111.875 83.4275C111.865 83.4509 111.86 83.4759 111.86 83.5012V84.4717H108.874V83.5012C108.874 83.4759 108.869 83.4509 108.859 83.4275C108.849 83.4042 108.834 83.383 108.816 83.3651C108.797 83.3472 108.775 83.333 108.751 83.3234C108.727 83.3137 108.701 83.3087 108.675 83.3087H103.898C103.872 83.3087 103.846 83.3137 103.822 83.3234C103.798 83.333 103.776 83.3472 103.757 83.3651C103.739 83.383 103.724 83.4042 103.714 83.4275C103.704 83.4509 103.699 83.4759 103.699 83.5012V84.4717H100.714V83.5012C100.714 83.4759 100.708 83.4509 100.698 83.4275C100.688 83.4042 100.674 83.383 100.655 83.3651C100.637 83.3472 100.615 83.333 100.591 83.3234C100.567 83.3137 100.541 83.3087 100.515 83.3087H63.0953C63.0692 83.3087 63.0433 83.3137 63.0191 83.3234C62.995 83.333 62.973 83.3472 62.9545 83.3651C62.9361 83.383 62.9214 83.4042 62.9114 83.4275C62.9014 83.4509 62.8962 83.4759 62.8962 83.5012V84.4717H59.9107V83.5012C59.9107 83.4759 59.9055 83.4509 59.8955 83.4275C59.8855 83.4042 59.8708 83.383 59.8524 83.3651C59.8339 83.3472 59.8119 83.333 59.7878 83.3234C59.7636 83.3137 59.7378 83.3087 59.7116 83.3087H54.9347C54.9086 83.3087 54.8827 83.3137 54.8585 83.3234C54.8344 83.333 54.8124 83.3472 54.794 83.3651C54.7755 83.383 54.7608 83.4042 54.7508 83.4275C54.7408 83.4509 54.7357 83.4759 54.7357 83.5012V84.4717H51.7501V83.5012C51.7501 83.4759 51.7449 83.4509 51.7349 83.4275C51.7249 83.4042 51.7103 83.383 51.6918 83.3651C51.6733 83.3472 51.6514 83.333 51.6272 83.3234C51.6031 83.3137 51.5772 83.3087 51.551 83.3087H46.7741C46.748 83.3087 46.7221 83.3137 46.6979 83.3234C46.6738 83.333 46.6518 83.3472 46.6334 83.3651C46.6149 83.383 46.6002 83.4042 46.5902 83.4275C46.5802 83.4509 46.5751 83.4759 46.5751 83.5012V84.4717H43.5895V83.5012C43.5895 83.4759 43.5843 83.4509 43.5743 83.4275C43.5643 83.4042 43.5497 83.383 43.5312 83.3651C43.5127 83.3472 43.4908 83.333 43.4666 83.3234C43.4425 83.3137 43.4166 83.3087 43.3904 83.3087H38.6135C38.5874 83.3087 38.5615 83.3137 38.5374 83.3234C38.5132 83.333 38.4913 83.3472 38.4728 83.3651C38.4543 83.383 38.4396 83.4042 38.4296 83.4275C38.4196 83.4509 38.4145 83.4759 38.4145 83.5012V84.4717H35.4289V83.5012C35.4289 83.4759 35.4238 83.4509 35.4137 83.4275C35.4037 83.4042 35.3891 83.383 35.3706 83.3651C35.3521 83.3472 35.3302 83.333 35.306 83.3234C35.2819 83.3137 35.256 83.3087 35.2299 83.3087H30.4529C30.4268 83.3087 30.4009 83.3137 30.3768 83.3234C30.3526 83.333 30.3307 83.3472 30.3122 83.3651C30.2937 83.383 30.279 83.4042 30.269 83.4275C30.259 83.4509 30.2539 83.4759 30.2539 83.5012V84.4717H27.2683V83.5012C27.2683 83.4759 27.2632 83.4509 27.2532 83.4275C27.2432 83.4042 27.2285 83.383 27.21 83.3651C27.1915 83.3472 27.1696 83.333 27.1454 83.3234C27.1213 83.3137 27.0954 83.3087 27.0693 83.3087H22.2923C22.2662 83.3087 22.2403 83.3137 22.2162 83.3234C22.192 83.333 22.1701 83.3472 22.1516 83.3651C22.1331 83.383 22.1185 83.4042 22.1085 83.4275C22.0984 83.4509 22.0933 83.4759 22.0933 83.5012V84.4717H19.1077V83.5012C19.1077 83.4759 19.1026 83.4509 19.0926 83.4275C19.0826 83.4042 19.0679 83.383 19.0494 83.3651C19.0309 83.3472 19.009 83.333 18.9848 83.3234C18.9607 83.3137 18.9348 83.3087 18.9087 83.3087H14.1318C14.1056 83.3087 14.0797 83.3137 14.0556 83.3234C14.0314 83.333 14.0095 83.3472 13.991 83.3651C13.9725 83.383 13.9579 83.4042 13.9479 83.4275C13.9379 83.4509 13.9327 83.4759 13.9327 83.5012V84.4717H4.77693C4.14961 84.4718 3.52844 84.5912 2.94888 84.8233C2.36931 85.0554 1.84271 85.3957 1.39913 85.8245C0.95555 86.2534 0.603684 86.7626 0.363621 87.3229C0.123558 87.8833 -3.71113e-07 88.4839 0 89.0904V91.1789C2.99799e-06 92.4039 0.503287 93.5786 1.39913 94.4448C2.29498 95.311 3.51001 95.7976 4.77693 95.7976H163.61C164.237 95.7976 164.858 95.6781 165.438 95.446C166.017 95.2139 166.544 94.8737 166.988 94.4448C167.431 94.0159 167.783 93.5068 168.023 92.9464C168.263 92.386 168.387 91.7854 168.387 91.1789V89.0904C168.387 88.4839 168.263 87.8833 168.023 87.3229C167.783 86.7626 167.431 86.2534 166.988 85.8245C166.544 85.3956 166.017 85.0554 165.438 84.8233C164.858 84.5912 164.237 84.4717 163.61 84.4717Z" fill="#3F3D56"/>
<path d="M120.062 59.4856H45.4564C45.2317 59.4854 45.0162 59.3989 44.8572 59.2453C44.6983 59.0916 44.6089 58.8832 44.6086 58.6659V28.6098C44.6089 28.3925 44.6983 28.1841 44.8572 28.0305C45.0162 27.8768 45.2317 27.7903 45.4564 27.7901H120.062C120.287 27.7903 120.503 27.8768 120.662 28.0305C120.821 28.1841 120.91 28.3925 120.91 28.6098V58.6659C120.91 58.8832 120.821 59.0916 120.662 59.2453C120.503 59.3989 120.287 59.4854 120.062 59.4856ZM45.4564 28.3366C45.3815 28.3367 45.3097 28.3655 45.2567 28.4167C45.2037 28.4679 45.1739 28.5374 45.1738 28.6098V58.6659C45.1739 58.7383 45.2037 58.8078 45.2567 58.859C45.3097 58.9102 45.3815 58.939 45.4564 58.9391H120.062C120.137 58.939 120.209 58.9102 120.262 58.859C120.315 58.8078 120.345 58.7383 120.345 58.6659V28.6098C120.345 28.5374 120.315 28.4679 120.262 28.4167C120.209 28.3655 120.137 28.3367 120.062 28.3366H45.4564Z" fill="#3F3D56"/>
<path d="M53.9343 45.2773H50.5431C50.3183 45.277 50.1028 45.1906 49.9439 45.0369C49.785 44.8833 49.6956 44.6749 49.6953 44.4576V41.1787C49.6956 40.9614 49.785 40.753 49.9439 40.5994C50.1028 40.4457 50.3183 40.3592 50.5431 40.359H53.9343C54.1591 40.3592 54.3746 40.4457 54.5335 40.5994C54.6924 40.753 54.7818 40.9614 54.7821 41.1787V44.4576C54.7818 44.6749 54.6924 44.8833 54.5335 45.0369C54.3746 45.1906 54.1591 45.277 53.9343 45.2773ZM50.5431 40.9055C50.4682 40.9056 50.3964 40.9344 50.3434 40.9856C50.2904 41.0368 50.2606 41.1063 50.2605 41.1787V44.4576C50.2606 44.53 50.2904 44.5995 50.3434 44.6507C50.3964 44.7019 50.4682 44.7307 50.5431 44.7308H53.9343C54.0092 44.7307 54.081 44.7019 54.134 44.6507C54.187 44.5995 54.2168 44.53 54.2169 44.4576V41.1787C54.2168 41.1063 54.187 41.0368 54.134 40.9856C54.081 40.9344 54.0092 40.9056 53.9343 40.9055H50.5431Z" fill="#3F3D56"/>
<path d="M114.411 44.7308H49.978V45.2772H114.411V44.7308Z" fill="#3F3D56"/>
<path d="M281.991 73.6939H74.8467V74.2404H281.991V73.6939Z" fill="#3F3D56"/>
<path d="M74.8465 77.5192C77.0316 77.5192 78.8029 75.8066 78.8029 73.6939C78.8029 71.5812 77.0316 69.8686 74.8465 69.8686C72.6615 69.8686 70.8901 71.5812 70.8901 73.6939C70.8901 75.8066 72.6615 77.5192 74.8465 77.5192Z" fill="#3F3D56"/>
<path d="M281.991 77.246C283.708 77.246 285.1 75.9004 285.1 74.2404C285.1 72.5805 283.708 71.2348 281.991 71.2348C280.275 71.2348 278.883 72.5805 278.883 74.2404C278.883 75.9004 280.275 77.246 281.991 77.246Z" fill="#3F3D56"/>
<path d="M297.252 137.631C298.968 137.631 300.36 136.286 300.36 134.626C300.36 132.966 298.968 131.62 297.252 131.62C295.535 131.62 294.143 132.966 294.143 134.626C294.143 136.286 295.535 137.631 297.252 137.631Z" fill="#3F3D56"/>
<path d="M90.9548 137.631C92.6716 137.631 94.0634 136.286 94.0634 134.626C94.0634 132.966 92.6716 131.62 90.9548 131.62C89.238 131.62 87.8462 132.966 87.8462 134.626C87.8462 136.286 89.238 137.631 90.9548 137.631Z" fill="#3F3D56"/>
</g>
<defs>
<clipPath id="clip0_3_638">
<rect width="311" height="189" fill="white"/>
</clipPath>
</defs>
</svg>
