<svg width="630" height="310" viewBox="0 0 630 310" fill="none" xmlns="http://www.w3.org/2000/svg">
<g clip-path="url(#clip0_10_896)">
<path d="M568.278 127.884H198.654C197.085 127.884 195.58 128.591 194.47 129.85C193.36 131.109 192.737 132.816 192.737 134.597C192.737 136.377 193.36 138.084 194.47 139.343C195.58 140.602 197.085 141.309 198.654 141.309H209.124V301.889C209.124 303.669 209.747 305.376 210.857 306.635C211.967 307.894 213.472 308.601 215.042 308.601C216.611 308.601 218.116 307.894 219.226 306.635C220.336 305.376 220.959 303.669 220.959 301.889L221.049 141.309H517.71L545.063 301.889C545.063 303.669 545.687 305.376 546.796 306.635C547.906 307.894 549.411 308.601 550.981 308.601C552.55 308.601 554.055 307.894 555.165 306.635C556.275 305.376 556.898 303.669 556.898 301.889L558.62 141.309H568.278C569.848 141.309 571.353 140.602 572.463 139.343C573.573 138.084 574.196 136.377 574.196 134.597C574.196 132.816 573.573 131.109 572.463 129.85C571.353 128.591 569.848 127.884 568.278 127.884Z" fill="#CCCCCC"/>
<path d="M262.724 97.9749V126.4H199.94C198.295 126.465 196.654 126.161 195.112 125.507C193.57 124.853 192.157 123.861 190.953 122.587C189.749 121.313 188.778 119.783 188.095 118.083C187.413 116.384 187.032 114.548 186.974 112.682C186.917 110.815 187.185 108.955 187.761 107.205C188.338 105.456 189.213 103.853 190.336 102.487C191.459 101.122 192.808 100.02 194.307 99.246C195.805 98.4718 197.423 98.0398 199.068 97.9749C199.359 97.9634 199.649 97.9634 199.94 97.9749L262.724 97.9749Z" fill="#F2F2F2"/>
<path d="M264.266 126.181C264.266 126.471 264.164 126.749 263.983 126.954C263.803 127.159 263.558 127.274 263.302 127.274H198.822C195.322 127.272 191.965 125.692 189.491 122.884C187.017 120.075 185.627 116.267 185.627 112.297C185.627 108.326 187.017 104.518 189.491 101.709C191.965 98.9009 195.322 97.3216 198.822 97.3189H263.302C263.429 97.3185 263.554 97.3465 263.672 97.4013C263.789 97.456 263.895 97.5365 263.985 97.6381C264.075 97.7396 264.146 97.8603 264.195 97.9931C264.243 98.1259 264.268 98.2683 264.268 98.4121C264.268 98.5559 264.243 98.6983 264.195 98.8312C264.146 98.964 264.075 99.0846 263.985 99.1862C263.895 99.2878 263.789 99.3682 263.672 99.423C263.554 99.4778 263.429 99.5058 263.302 99.5054H198.822C195.834 99.5105 192.97 100.86 190.859 103.259C188.748 105.657 187.562 108.908 187.562 112.297C187.562 115.686 188.748 118.936 190.859 121.335C192.97 123.733 195.834 125.083 198.822 125.088H263.302C263.558 125.088 263.803 125.203 263.983 125.408C264.164 125.613 264.266 125.891 264.266 126.181Z" fill="#348E91"/>
<path d="M262.724 104.534H195.256C195.205 104.535 195.156 104.512 195.119 104.472C195.083 104.431 195.062 104.376 195.062 104.318C195.061 104.26 195.081 104.204 195.117 104.163C195.153 104.122 195.201 104.098 195.252 104.097H262.724C262.774 104.098 262.823 104.121 262.859 104.162C262.894 104.203 262.915 104.258 262.915 104.316C262.915 104.373 262.894 104.429 262.859 104.47C262.823 104.511 262.774 104.534 262.724 104.534Z" fill="#CCCCCC"/>
<path d="M262.724 109.782H195.256C195.205 109.783 195.156 109.76 195.119 109.719C195.083 109.679 195.062 109.623 195.062 109.566C195.061 109.508 195.081 109.452 195.117 109.411C195.153 109.369 195.201 109.346 195.252 109.345H262.724C262.774 109.346 262.823 109.369 262.859 109.41C262.894 109.451 262.915 109.506 262.915 109.564C262.915 109.621 262.894 109.677 262.859 109.717C262.823 109.758 262.774 109.782 262.724 109.782Z" fill="#CCCCCC"/>
<path d="M262.724 115.03H195.256C195.205 115.03 195.156 115.008 195.119 114.967C195.083 114.926 195.062 114.871 195.062 114.813C195.061 114.755 195.081 114.7 195.117 114.658C195.153 114.617 195.201 114.593 195.252 114.593H262.724C262.774 114.593 262.823 114.616 262.859 114.657C262.894 114.698 262.915 114.754 262.915 114.811C262.915 114.869 262.894 114.924 262.859 114.965C262.823 115.006 262.774 115.029 262.724 115.03Z" fill="#CCCCCC"/>
<path d="M262.724 120.277H195.256C195.205 120.278 195.156 120.255 195.119 120.215C195.083 120.174 195.062 120.119 195.062 120.061C195.061 120.003 195.081 119.947 195.117 119.906C195.153 119.865 195.201 119.841 195.252 119.84H262.724C262.774 119.841 262.823 119.864 262.859 119.905C262.894 119.946 262.915 120.001 262.915 120.059C262.915 120.116 262.894 120.172 262.859 120.213C262.823 120.254 262.774 120.277 262.724 120.277Z" fill="#CCCCCC"/>
<path d="M250.888 68.0275V96.4525H188.105C184.782 96.5836 181.549 95.212 179.117 92.6394C176.686 90.0668 175.255 86.5038 175.139 82.7344C175.024 78.9651 176.233 75.298 178.501 72.5399C180.769 69.7818 183.91 68.1587 187.233 68.0275C187.524 68.0161 187.814 68.0161 188.105 68.0275H250.888Z" fill="#F2F2F2"/>
<path d="M252.431 96.2338C252.43 96.5238 252.329 96.8018 252.148 97.0068C251.967 97.2118 251.722 97.327 251.467 97.3271H186.987C183.485 97.3271 180.126 95.7491 177.65 92.9402C175.173 90.1314 173.782 86.3217 173.782 82.3493C173.782 78.377 175.173 74.5673 177.65 71.7585C180.126 68.9496 183.485 67.3716 186.987 67.3716H251.467C251.593 67.3716 251.719 67.3999 251.836 67.4548C251.953 67.5097 252.059 67.5903 252.148 67.6918C252.238 67.7933 252.309 67.9138 252.357 68.0465C252.406 68.1791 252.431 68.3213 252.431 68.4649C252.431 68.6084 252.406 68.7506 252.357 68.8832C252.309 69.0158 252.238 69.1364 252.148 69.2379C252.059 69.3394 251.953 69.4199 251.836 69.4749C251.719 69.5298 251.593 69.5581 251.467 69.5581H186.987C183.996 69.5581 181.128 70.9058 179.013 73.3046C176.898 75.7034 175.71 78.9569 175.71 82.3494C175.71 85.7418 176.898 88.9953 179.013 91.3941C181.128 93.793 183.996 95.1406 186.987 95.1406H251.467C251.722 95.1407 251.967 95.2559 252.148 95.4609C252.329 95.6659 252.43 95.9439 252.431 96.2338Z" fill="#3F3D56"/>
<path d="M250.888 74.5871H183.42C183.37 74.5874 183.32 74.5648 183.284 74.5242C183.248 74.4836 183.227 74.4283 183.227 74.3704C183.226 74.3126 183.246 74.2569 183.282 74.2155C183.317 74.1742 183.366 74.1505 183.417 74.1498H250.888C250.939 74.1504 250.988 74.1736 251.024 74.2146C251.059 74.2555 251.079 74.3108 251.079 74.3684C251.079 74.426 251.059 74.4813 251.024 74.5223C250.988 74.5632 250.939 74.5865 250.888 74.5871Z" fill="#CCCCCC"/>
<path d="M250.888 79.8348H183.42C183.37 79.8351 183.32 79.8125 183.284 79.7719C183.248 79.7313 183.227 79.676 183.227 79.6181C183.226 79.5603 183.246 79.5046 183.282 79.4632C183.317 79.4219 183.366 79.3982 183.417 79.3975H250.888C250.939 79.398 250.988 79.4213 251.024 79.4623C251.059 79.5032 251.079 79.5585 251.079 79.6161C251.079 79.6737 251.059 79.729 251.024 79.77C250.988 79.8109 250.939 79.8342 250.888 79.8348Z" fill="#CCCCCC"/>
<path d="M250.888 85.0824H183.42C183.37 85.0827 183.32 85.0601 183.284 85.0195C183.248 84.9789 183.227 84.9236 183.227 84.8658C183.226 84.808 183.246 84.7523 183.282 84.7109C183.317 84.6695 183.366 84.6459 183.417 84.6451H250.888C250.939 84.6457 250.988 84.669 251.024 84.7099C251.059 84.7509 251.079 84.8062 251.079 84.8638C251.079 84.9214 251.059 84.9767 251.024 85.0176C250.988 85.0586 250.939 85.0819 250.888 85.0824Z" fill="#CCCCCC"/>
<path d="M250.888 90.3301H183.42C183.37 90.3304 183.32 90.3078 183.284 90.2672C183.248 90.2266 183.227 90.1713 183.227 90.1135C183.226 90.0556 183.246 89.9999 183.282 89.9586C183.317 89.9172 183.366 89.8936 183.417 89.8928H250.888C250.939 89.8934 250.988 89.9167 251.024 89.9576C251.059 89.9986 251.079 90.0539 251.079 90.1115C251.079 90.1691 251.059 90.2244 251.024 90.2653C250.988 90.3062 250.939 90.3295 250.888 90.3301Z" fill="#CCCCCC"/>
<path d="M323.925 228.468V203.684C323.925 202.588 323.541 201.538 322.858 200.763C322.175 199.988 321.249 199.553 320.283 199.553H237.436C236.471 199.553 235.544 199.988 234.861 200.763C234.179 201.538 233.795 202.588 233.795 203.684V228.468H323.925Z" fill="#CCCCCC"/>
<path d="M323.925 237.762H233.795V269.775H323.925V237.762Z" fill="#CCCCCC"/>
<path d="M233.795 279.069V303.853C233.795 304.948 234.179 305.999 234.861 306.774C235.544 307.548 236.471 307.983 237.436 307.983H320.283C321.249 307.983 322.175 307.548 322.858 306.774C323.541 305.999 323.925 304.948 323.925 303.853V279.069H233.795Z" fill="#CCCCCC"/>
<path d="M278.405 218.141C279.913 218.141 281.136 216.754 281.136 215.043C281.136 213.332 279.913 211.945 278.405 211.945C276.896 211.945 275.673 213.332 275.673 215.043C275.673 216.754 276.896 218.141 278.405 218.141Z" fill="white"/>
<path d="M278.405 259.448C279.913 259.448 281.136 258.061 281.136 256.35C281.136 254.639 279.913 253.252 278.405 253.252C276.896 253.252 275.673 254.639 275.673 256.35C275.673 258.061 276.896 259.448 278.405 259.448Z" fill="white"/>
<path d="M278.551 299.88C280.059 299.88 281.282 298.493 281.282 296.782C281.282 295.071 280.059 293.684 278.551 293.684C277.043 293.684 275.82 295.071 275.82 296.782C275.82 298.493 277.043 299.88 278.551 299.88Z" fill="white"/>
<path d="M313.706 171.294V199.719H250.923C247.601 199.848 244.37 198.475 241.941 195.903C239.511 193.33 238.081 189.769 237.966 186.001C237.85 182.234 239.058 178.568 241.324 175.81C243.59 173.053 246.729 171.428 250.05 171.294C250.341 171.283 250.632 171.283 250.923 171.294H313.706Z" fill="#F2F2F2"/>
<path d="M315.249 199.501C315.248 199.791 315.147 200.069 314.966 200.274C314.785 200.479 314.54 200.594 314.285 200.594H249.805C246.303 200.595 242.945 199.019 240.468 196.212C237.992 193.405 236.599 189.597 236.597 185.625C236.595 181.654 237.983 177.844 240.457 175.034C242.931 172.223 246.288 170.642 249.789 170.638H314.285C314.412 170.638 314.537 170.666 314.654 170.721C314.772 170.776 314.878 170.856 314.968 170.958C315.058 171.059 315.129 171.18 315.178 171.313C315.226 171.446 315.251 171.588 315.251 171.732C315.251 171.876 315.226 172.018 315.178 172.151C315.129 172.284 315.058 172.404 314.968 172.506C314.878 172.607 314.772 172.688 314.654 172.743C314.537 172.797 314.412 172.825 314.285 172.825H249.805C246.816 172.829 243.952 174.179 241.84 176.577C239.729 178.976 238.543 182.227 238.543 185.616C238.543 189.006 239.729 192.257 241.84 194.655C243.952 197.053 246.816 198.403 249.805 198.407H314.285C314.54 198.408 314.785 198.523 314.966 198.728C315.147 198.933 315.248 199.211 315.249 199.501Z" fill="#3F3D56"/>
<path d="M313.706 177.854H246.238C246.187 177.854 246.138 177.832 246.102 177.791C246.066 177.75 246.045 177.695 246.045 177.637C246.044 177.579 246.064 177.524 246.1 177.482C246.135 177.441 246.184 177.417 246.235 177.417H313.706C313.757 177.417 313.806 177.441 313.842 177.481C313.877 177.522 313.897 177.578 313.897 177.635C313.897 177.693 313.877 177.748 313.842 177.789C313.806 177.83 313.757 177.853 313.706 177.854Z" fill="#CCCCCC"/>
<path d="M313.706 183.102H246.238C246.187 183.102 246.138 183.079 246.102 183.039C246.066 182.998 246.045 182.943 246.045 182.885C246.044 182.827 246.064 182.772 246.1 182.73C246.135 182.689 246.184 182.665 246.235 182.664H313.706C313.757 182.665 313.806 182.688 313.842 182.729C313.877 182.77 313.897 182.825 313.897 182.883C313.897 182.941 313.877 182.996 313.842 183.037C313.806 183.078 313.757 183.101 313.706 183.102Z" fill="#CCCCCC"/>
<path d="M313.706 188.349H246.238C246.187 188.35 246.138 188.327 246.102 188.286C246.066 188.246 246.045 188.191 246.045 188.133C246.044 188.075 246.064 188.019 246.1 187.978C246.135 187.937 246.184 187.913 246.235 187.912H313.706C313.757 187.913 313.806 187.936 313.842 187.977C313.877 188.018 313.897 188.073 313.897 188.131C313.897 188.188 313.877 188.244 313.842 188.285C313.806 188.326 313.757 188.349 313.706 188.349Z" fill="#CCCCCC"/>
<path d="M313.706 193.597H246.238C246.187 193.597 246.138 193.575 246.102 193.534C246.066 193.493 246.045 193.438 246.045 193.38C246.044 193.322 246.064 193.267 246.1 193.225C246.135 193.184 246.184 193.16 246.235 193.16H313.706C313.757 193.16 313.806 193.184 313.842 193.224C313.877 193.265 313.897 193.321 313.897 193.378C313.897 193.436 313.877 193.491 313.842 193.532C313.806 193.573 313.757 193.596 313.706 193.597Z" fill="#CCCCCC"/>
<path d="M239.97 58.545H211.365C211.094 58.5447 210.826 58.6154 210.583 58.7515L203.363 62.8512C203.125 62.9657 202.923 63.157 202.78 63.4012C202.638 63.6455 202.562 63.9318 202.562 64.2246C202.562 64.5174 202.638 64.8038 202.78 65.048C202.923 65.2922 203.125 65.4835 203.363 65.598L210.583 69.6977C210.826 69.8338 211.094 69.9045 211.365 69.9043H239.97C240.365 69.9301 240.752 69.7788 241.048 69.4831C241.345 69.1874 241.527 68.771 241.555 68.3243V60.1249C241.527 59.6782 241.345 59.2618 241.048 58.9661C240.752 58.6704 240.365 58.5191 239.97 58.545Z" fill="#3F3D56"/>
<path d="M241.555 60.125V68.3243C241.527 68.7711 241.345 69.1874 241.048 69.4832C240.752 69.7789 240.365 69.9302 239.97 69.9043H234.271V58.545H239.97C240.365 58.5191 240.752 58.6704 241.048 58.9661C241.345 59.2619 241.527 59.6782 241.555 60.125Z" fill="#348E91"/>
<path d="M68.4755 219.208C72.1588 220.677 76.1134 221.045 79.9584 220.276C83.8035 219.508 87.4093 217.629 90.4284 214.822C98.1175 207.501 100.528 195.441 102.49 184.274C104.424 173.264 106.358 162.254 108.292 151.243L96.1449 160.731C87.4096 167.553 78.4775 174.594 72.4292 184.476C66.3809 194.359 63.7408 207.849 68.6004 218.542" fill="#E6E6E6"/>
<path d="M69.5138 259.198C68.2844 249.04 67.0202 238.752 67.8826 228.485C68.6485 219.367 71.1009 210.462 76.0937 203.16C78.7438 199.291 81.9686 195.976 85.6229 193.365C86.5758 192.683 87.4529 194.396 86.5041 195.075C80.1811 199.608 75.2904 206.301 72.5373 214.19C69.4965 222.963 69.0082 232.526 69.5322 241.845C69.8491 247.481 70.5207 253.08 71.1974 258.672C71.2508 258.925 71.2175 259.191 71.1043 259.417C70.9911 259.643 70.8065 259.812 70.5877 259.89C70.3645 259.958 70.1266 259.924 69.9255 259.794C69.7245 259.665 69.5766 259.451 69.5138 259.198Z" fill="#F2F2F2"/>
<path d="M81.3553 241.224C82.935 243.947 85.1064 246.163 87.6603 247.658C90.2142 249.153 93.0645 249.877 95.9367 249.76C103.318 249.363 109.472 243.519 115.011 237.971L131.396 221.562L120.552 220.973C112.754 220.55 104.754 220.155 97.3265 222.883C89.8989 225.611 83.0487 232.176 81.6906 240.896" fill="#E6E6E6"/>
<path d="M66.0394 265.037C71.9568 253.161 78.8205 239.961 91.0847 235.743C94.4948 234.574 98.0704 234.155 101.619 234.509C102.738 234.618 102.458 236.574 101.342 236.465C95.3934 235.904 89.4565 237.686 84.5305 241.51C79.7904 245.169 76.0996 250.257 72.9759 255.653C71.0624 258.958 69.3485 262.403 67.6342 265.844C67.0864 266.944 65.4851 266.15 66.0394 265.037Z" fill="#F2F2F2"/>
<path d="M56.558 277.538C56.7574 274.918 57.5868 272.41 58.956 270.287C60.3252 268.164 62.1817 266.508 64.3232 265.5V258.634H74.4757V265.716C76.5118 266.774 78.2641 268.426 79.554 270.503C80.8438 272.58 81.6251 275.007 81.8181 277.538L84.2054 309.016H54.1707L56.558 277.538Z" fill="#F2F2F2"/>
<path d="M401.828 127.239L398.808 125.796L396.736 108.623H369.145L366.9 125.726L364.198 127.259C364.068 127.332 363.965 127.453 363.903 127.601C363.842 127.75 363.827 127.917 363.86 128.077C363.893 128.236 363.973 128.379 364.086 128.48C364.2 128.582 364.34 128.637 364.485 128.637H401.579C401.727 128.637 401.871 128.579 401.985 128.473C402.1 128.366 402.179 128.218 402.208 128.054C402.237 127.889 402.216 127.718 402.146 127.569C402.077 127.421 401.965 127.304 401.828 127.239Z" fill="#E6E6E6"/>
<path d="M450.858 110.908H315.326C314.615 110.906 313.934 110.584 313.431 110.013C312.929 109.442 312.647 108.668 312.647 107.862V86.1833H453.537V107.862C453.537 108.668 453.255 109.442 452.753 110.013C452.251 110.584 451.569 110.906 450.858 110.908Z" fill="#CCCCCC"/>
<path d="M453.679 96.4291H312.523V3.67158C312.524 2.69814 312.866 1.76489 313.472 1.07658C314.079 0.388266 314.902 0.00108922 315.76 0H450.442C451.3 0.0010892 452.123 0.388267 452.73 1.07658C453.337 1.76489 453.678 2.69813 453.679 3.67158L453.679 96.4291Z" fill="#3F3D56"/>
<path d="M445.248 89.6968H320.954C320.292 89.696 319.658 89.3975 319.19 88.8668C318.722 88.3362 318.459 87.6167 318.458 86.8663V9.56289C318.459 8.81241 318.722 8.0929 319.19 7.56222C319.658 7.03155 320.292 6.73304 320.954 6.73218H445.248C445.91 6.73304 446.544 7.03155 447.012 7.56222C447.48 8.0929 447.743 8.81241 447.744 9.56289V86.8663C447.743 87.6167 447.48 88.3362 447.012 88.8668C446.544 89.3975 445.91 89.696 445.248 89.6968Z" fill="white"/>
<path d="M412.511 116.973C413.313 116.133 414.269 115.502 415.309 115.125C416.35 114.748 417.451 114.635 418.535 114.793C419.618 114.951 420.658 115.377 421.581 116.04C422.503 116.703 423.287 117.588 423.876 118.631L440.688 115.241L444.996 126.327L421.195 130.737C419.583 131.743 417.702 132.043 415.909 131.581C414.115 131.119 412.534 129.927 411.463 128.23C410.393 126.534 409.908 124.451 410.101 122.376C410.294 120.301 411.152 118.379 412.511 116.973Z" fill="#FFB6B6"/>
<path d="M428.077 131.129L445.604 130.881L447.822 130.847L483.482 130.337C483.482 130.337 493.166 119.858 501.598 109.069L500.416 99.373C499.263 89.8569 495.102 81.1401 488.706 74.8447C476.629 83.9981 469.625 102.116 469.625 102.116L447.515 108.115L445.303 108.715L431.565 112.438L428.077 131.129Z" fill="#348E91"/>
<path d="M517.8 190.727H485.083C485.083 192.317 449.32 193.608 449.32 193.608C448.531 194.281 447.812 195.054 447.177 195.912C445.267 198.495 444.224 201.76 444.23 205.13V207.435C444.231 211.254 445.57 214.917 447.951 217.618C450.332 220.318 453.561 221.836 456.928 221.838H517.8C521.167 221.834 524.395 220.316 526.776 217.615C529.156 214.915 530.495 211.253 530.498 207.435V205.13C530.493 201.312 529.154 197.651 526.774 194.951C524.393 192.251 521.166 190.732 517.8 190.727Z" fill="#E4E4E4"/>
<path d="M494.009 221.266H480.803V307.726H494.009V221.266Z" fill="#E4E4E4"/>
<path d="M443.217 307.2C443.217 308.819 463.229 307.826 487.914 307.826C512.599 307.826 532.61 308.819 532.61 307.2C532.61 305.582 512.599 292.747 487.914 292.747C463.229 292.747 443.217 305.582 443.217 307.2Z" fill="#E4E4E4"/>
<path d="M434.347 297.321L424.518 297.32L419.843 254.32L434.348 254.321L434.347 297.321Z" fill="#FFB6B6"/>
<path d="M436.853 308.127L405.162 308.126V307.671C405.163 303.961 406.462 300.402 408.775 297.778C411.089 295.155 414.226 293.68 417.497 293.68H417.498L436.853 293.681L436.853 308.127Z" fill="#2F2E41"/>
<path d="M405.298 297.321L395.47 297.32L390.795 254.32L405.3 254.321L405.298 297.321Z" fill="#FFB6B6"/>
<path d="M407.805 308.127L376.114 308.126V307.671C376.114 303.961 377.414 300.402 379.727 297.778C382.04 295.155 385.178 293.68 388.449 293.68H388.45L407.805 293.681L407.805 308.127Z" fill="#2F2E41"/>
<path d="M493.337 49.7652C502.775 49.7652 510.426 41.0868 510.426 30.3816C510.426 19.6764 502.775 10.998 493.337 10.998C483.9 10.998 476.249 19.6764 476.249 30.3816C476.249 41.0868 483.9 49.7652 493.337 49.7652Z" fill="#FFB6B6"/>
<path d="M520.995 163.19C520.995 163.19 526.729 197.581 504.913 201.961C483.097 206.34 451.605 209.418 451.605 209.418L437.463 284.26L418.464 282.336C418.464 282.336 420.99 192.243 427.204 185.194C433.418 178.146 472.693 157.041 472.693 157.041L520.995 163.19Z" fill="#2F2E41"/>
<path d="M478.387 148.777L468.846 159.634C468.846 159.634 399.952 172.221 397.294 190.27C393.282 217.52 388.542 276.777 388.542 276.777L409.256 275.015L417.378 207.656L450.52 199.105L488.226 175.796L478.387 148.777Z" fill="#2F2E41"/>
<path d="M509.782 18.811C508.095 15.2009 505.951 8.00587 502.546 6.67146C500.656 5.96031 498.701 5.48808 496.719 5.26336L490.932 7.78816L494.082 5.00949C493.468 4.96805 492.856 4.93417 492.243 4.90786L488.338 6.61135L490.336 4.84892C486.696 4.80653 482.938 5.23588 480.117 7.74959C477.713 9.89253 475.33 18.0104 474.945 21.4514C474.533 24.7432 474.677 28.0939 475.37 31.3245L476.358 32.3911C476.704 31.4914 476.964 30.5524 477.134 29.5899C477.489 27.7917 478.17 26.0969 479.134 24.6136C480.097 23.1303 481.323 21.8911 482.733 20.9749L482.787 20.9405C484.445 19.8817 486.458 19.9305 488.359 20.0081L497.392 20.3768C499.566 20.4655 501.906 20.6215 503.6 22.1678C504.677 23.3085 505.524 24.6998 506.082 26.2463C506.924 28.1737 508.569 35.4434 508.569 35.4434C508.569 35.4434 509.5 34.0712 509.946 35.0925C510.662 32.4277 511.097 29.6763 511.242 26.8955C511.384 24.1024 510.881 21.3156 509.782 18.811Z" fill="#2F2E41"/>
<path d="M569.55 38.8939C568.46 38.9754 567.399 39.3269 566.441 39.9238C565.484 40.5207 564.654 41.3484 564.009 42.3487C563.364 43.3489 562.92 44.4974 562.709 45.7132C562.498 46.9289 562.524 48.1824 562.787 49.3854L549.045 60.8833L553.168 72.0598L572.373 55.5133C574.125 54.8799 575.612 53.5393 576.551 51.7457C577.491 49.952 577.817 47.8298 577.469 45.7812C577.121 43.7327 576.123 41.9001 574.663 40.6307C573.204 39.3613 571.384 38.7434 569.55 38.8939Z" fill="#FFB6B6"/>
<path d="M567.338 62.3671L532.889 105.765C532.889 105.765 516.414 99.7829 503.674 93.2974L497.95 73.3565C496.621 68.7304 496.053 63.8664 496.276 59.0075C513.939 53.6763 534.483 73.5128 534.483 73.5128L560.269 50.6013L567.338 62.3671Z" fill="#348E91"/>
<path d="M486.954 166.396C480.808 163.987 474.453 161.497 467.598 160.563L467.304 160.522L467.385 160.199C474.481 131.937 472.71 113.859 469.233 86.7021C468.493 80.8444 469.443 74.8725 471.942 69.6778C474.44 64.483 478.352 60.3439 483.094 57.8783L483.137 57.8568L502.715 56.4456L502.76 56.4425L516.999 61.1927C519.047 61.8811 520.84 63.3123 522.102 65.267C523.365 67.2217 524.028 69.592 523.989 72.0149C523.835 80.9458 524.162 90.917 524.509 101.473C525.286 125.156 526.089 149.645 521.53 165.534L521.506 165.618L521.445 165.672C517.254 169.544 512.003 171.636 506.597 171.588C500.206 171.588 493.684 169.032 486.954 166.396Z" fill="#348E91"/>
<path d="M629.09 310H0.910406C0.668952 310 0.437389 309.891 0.266656 309.698C0.0959219 309.504 0 309.241 0 308.967C0 308.693 0.0959219 308.431 0.266656 308.237C0.437389 308.043 0.668952 307.935 0.910406 307.935H629.09C629.331 307.935 629.563 308.043 629.733 308.237C629.904 308.431 630 308.693 630 308.967C630 309.241 629.904 309.504 629.733 309.698C629.563 309.891 629.331 310 629.09 310Z" fill="#CCCCCC"/>
</g>
<defs>
<clipPath id="clip0_10_896">
<rect width="630" height="310" fill="white"/>
</clipPath>
</defs>
</svg>
