<svg width="630" height="576" viewBox="0 0 630 576" fill="none" xmlns="http://www.w3.org/2000/svg">
<g clip-path="url(#clip0_14_240)">
<path d="M574.771 575.425V517.661C574.771 517.661 598.579 558.614 574.771 575.425Z" fill="#F1F1F1"/>
<path d="M576.242 575.415L531.239 536.351C531.239 536.351 579.245 547.463 576.242 575.415Z" fill="#F1F1F1"/>
<path d="M417.512 254.876L178.699 386.852C177.863 387.313 176.868 387.441 175.932 387.209C174.997 386.977 174.196 386.404 173.707 385.614L20.1347 137.167C19.6475 136.377 19.5117 135.436 19.7571 134.551C20.0025 133.666 20.6091 132.91 21.4439 132.447L260.257 0.471027C261.093 0.0103234 262.088 -0.118081 263.024 0.113985C263.96 0.34605 264.76 0.919634 265.249 1.7089L418.822 250.156C419.309 250.946 419.445 251.887 419.199 252.772C418.954 253.657 418.347 254.414 417.512 254.876Z" fill="white"/>
<path d="M417.512 254.876L178.699 386.852C177.863 387.313 176.868 387.441 175.932 387.209C174.997 386.977 174.196 386.404 173.707 385.614L20.1347 137.167C19.6475 136.377 19.5117 135.436 19.7571 134.551C20.0025 133.666 20.6091 132.91 21.4439 132.447L260.257 0.471027C261.093 0.0103234 262.088 -0.118081 263.024 0.113985C263.96 0.34605 264.76 0.919634 265.249 1.7089L418.822 250.156C419.309 250.946 419.445 251.887 419.199 252.772C418.954 253.657 418.347 254.414 417.512 254.876ZM22.1805 133.639C21.6796 133.916 21.3156 134.37 21.1683 134.901C21.0211 135.432 21.1026 135.997 21.395 136.471L174.967 384.918C175.261 385.392 175.741 385.736 176.303 385.875C176.864 386.014 177.461 385.937 177.963 385.661L416.776 253.685C417.277 253.407 417.641 252.953 417.788 252.422C417.935 251.891 417.854 251.327 417.561 250.852L263.989 2.40531C263.695 1.93172 263.215 1.58755 262.654 1.44831C262.092 1.30907 261.495 1.38613 260.994 1.66258L22.1805 133.639Z" fill="#3F3D56"/>
<path d="M175.69 158.38L116.46 191.113C115.624 191.574 114.629 191.702 113.693 191.47C112.757 191.238 111.957 190.664 111.468 189.875L76.8495 133.87C76.3623 133.08 76.2265 132.139 76.4719 131.254C76.7174 130.369 77.324 129.613 78.1587 129.15L137.389 96.4173C138.225 95.9566 139.22 95.8282 140.156 96.0603C141.092 96.2923 141.892 96.8659 142.381 97.6552L177 153.66C177.487 154.45 177.623 155.391 177.377 156.276C177.132 157.161 176.525 157.918 175.69 158.38ZM78.8953 130.342C78.3944 130.619 78.0304 131.073 77.8832 131.604C77.7359 132.135 77.8174 132.7 78.1098 133.174L112.728 189.179C113.022 189.652 113.502 189.996 114.063 190.136C114.625 190.275 115.222 190.198 115.723 189.921L174.954 157.189C175.455 156.911 175.819 156.457 175.966 155.926C176.113 155.395 176.032 154.831 175.739 154.357L141.121 98.3516C140.828 97.8781 140.348 97.5339 139.786 97.3946C139.225 97.2554 138.628 97.3325 138.126 97.6089L78.8953 130.342Z" fill="#F2F2F2"/>
<path d="M162.913 174.634L103.682 207.367C102.93 207.781 102.034 207.897 101.192 207.688C100.35 207.479 99.6293 206.963 99.1891 206.253L64.5708 150.248C64.1323 149.536 64.0101 148.69 64.231 147.893C64.4519 147.097 64.9978 146.416 65.7491 146L124.98 113.267C125.732 112.852 126.628 112.737 127.47 112.945C128.312 113.154 129.032 113.671 129.473 114.381L164.091 170.386C164.529 171.097 164.652 171.944 164.431 172.74C164.21 173.537 163.664 174.218 162.913 174.634Z" fill="#348E91"/>
<path d="M305.876 132.396L120.623 234.774C119.871 235.189 118.975 235.305 118.132 235.096C117.29 234.887 116.569 234.371 116.13 233.66C115.69 232.948 115.568 232.101 115.789 231.305C116.01 230.508 116.556 229.827 117.308 229.411L302.562 127.034C302.934 126.828 303.346 126.694 303.773 126.639C304.2 126.583 304.635 126.608 305.052 126.711C305.469 126.815 305.861 126.995 306.204 127.242C306.548 127.488 306.837 127.796 307.055 128.148C307.272 128.5 307.414 128.89 307.473 129.294C307.531 129.698 307.505 130.109 307.396 130.503C307.286 130.898 307.096 131.268 306.835 131.593C306.574 131.917 306.249 132.191 305.876 132.396Z" fill="#CCCCCC"/>
<path d="M272.555 175.59L132.039 253.243C131.667 253.449 131.255 253.583 130.828 253.639C130.401 253.694 129.966 253.669 129.549 253.566C128.706 253.357 127.986 252.84 127.547 252.129C127.107 251.418 126.984 250.571 127.205 249.774C127.426 248.978 127.973 248.297 128.725 247.881L269.24 170.228C269.613 170.022 270.024 169.887 270.452 169.832C270.879 169.777 271.314 169.801 271.731 169.905C272.148 170.008 272.539 170.188 272.883 170.435C273.227 170.681 273.515 170.99 273.733 171.342C273.951 171.694 274.093 172.083 274.151 172.487C274.21 172.891 274.184 173.302 274.074 173.696C273.965 174.091 273.774 174.461 273.514 174.786C273.253 175.111 272.927 175.384 272.555 175.59Z" fill="#CCCCCC"/>
<path d="M263.262 64.8236L181.347 110.092C180.595 110.508 179.7 110.624 178.857 110.415C178.014 110.206 177.294 109.689 176.855 108.978C176.415 108.267 176.292 107.42 176.513 106.624C176.734 105.827 177.281 105.146 178.033 104.73L259.948 59.4615C260.7 59.0459 261.596 58.9298 262.438 59.1387C262.855 59.2422 263.247 59.4223 263.59 59.6688C263.934 59.9153 264.223 60.2235 264.441 60.5755C264.658 60.9276 264.8 61.3168 264.859 61.7208C264.917 62.1249 264.891 62.5358 264.782 62.9303C264.672 63.3248 264.482 63.695 264.221 64.0199C263.961 64.3447 263.635 64.6178 263.262 64.8236Z" fill="#CCCCCC"/>
<path d="M254.236 94.5907L192.764 128.562C192.392 128.768 191.98 128.902 191.553 128.958C191.126 129.013 190.691 128.988 190.274 128.885C189.856 128.781 189.465 128.601 189.121 128.355C188.778 128.108 188.489 127.8 188.271 127.448C188.054 127.096 187.912 126.707 187.853 126.303C187.794 125.899 187.821 125.488 187.93 125.093C188.039 124.699 188.23 124.328 188.491 124.004C188.751 123.679 189.077 123.406 189.45 123.2L250.921 89.2286C251.673 88.813 252.569 88.6969 253.412 88.9058C254.254 89.1147 254.974 89.6316 255.414 90.3426C255.854 91.0537 255.976 91.9008 255.755 92.6974C255.534 93.4941 254.988 94.1751 254.236 94.5907Z" fill="#CCCCCC"/>
<path d="M328.71 169.335L143.456 271.713C142.704 272.128 141.808 272.244 140.966 272.035C140.123 271.826 139.403 271.31 138.963 270.599C138.524 269.887 138.401 269.04 138.622 268.244C138.843 267.447 139.389 266.766 140.141 266.35L325.395 163.973C326.147 163.558 327.043 163.441 327.885 163.65C328.728 163.859 329.448 164.376 329.888 165.087C330.327 165.798 330.45 166.645 330.229 167.442C330.008 168.239 329.462 168.92 328.71 169.335Z" fill="#CCCCCC"/>
<path d="M295.388 212.529L154.873 290.183C154.5 290.388 154.089 290.523 153.661 290.578C153.234 290.634 152.799 290.609 152.382 290.505C151.965 290.402 151.573 290.222 151.23 289.975C150.886 289.729 150.597 289.421 150.38 289.069C150.162 288.717 150.02 288.327 149.961 287.923C149.903 287.519 149.929 287.108 150.038 286.714C150.148 286.319 150.338 285.949 150.599 285.624C150.86 285.299 151.186 285.026 151.558 284.821L292.074 207.167C292.446 206.961 292.857 206.827 293.285 206.771C293.712 206.716 294.147 206.741 294.564 206.844C294.981 206.948 295.373 207.128 295.716 207.374C296.06 207.621 296.349 207.929 296.566 208.281C296.784 208.633 296.926 209.022 296.985 209.426C297.043 209.83 297.017 210.241 296.908 210.636C296.798 211.03 296.608 211.401 296.347 211.725C296.086 212.05 295.76 212.323 295.388 212.529Z" fill="#CCCCCC"/>
<path d="M351.543 206.275L166.289 308.652C165.917 308.858 165.505 308.992 165.078 309.048C164.651 309.103 164.216 309.078 163.799 308.975C163.382 308.871 162.99 308.691 162.647 308.445C162.303 308.198 162.014 307.89 161.797 307.538C161.579 307.186 161.437 306.797 161.378 306.393C161.32 305.989 161.346 305.578 161.455 305.183C161.565 304.789 161.755 304.418 162.016 304.094C162.277 303.769 162.602 303.496 162.975 303.29L348.228 200.913C348.601 200.707 349.012 200.572 349.44 200.517C349.867 200.462 350.302 200.486 350.719 200.59C351.136 200.693 351.528 200.873 351.871 201.12C352.215 201.367 352.504 201.675 352.721 202.027C352.939 202.379 353.081 202.768 353.139 203.172C353.198 203.576 353.172 203.987 353.062 204.381C352.953 204.776 352.763 205.146 352.502 205.471C352.241 205.796 351.915 206.069 351.543 206.275Z" fill="#CCCCCC"/>
<path d="M362.959 224.745L177.706 327.122C177.334 327.328 176.922 327.462 176.495 327.517C176.067 327.573 175.633 327.548 175.216 327.445C174.798 327.341 174.407 327.161 174.063 326.914C173.72 326.668 173.431 326.36 173.213 326.008C172.996 325.656 172.853 325.266 172.795 324.862C172.736 324.458 172.762 324.047 172.872 323.653C172.981 323.258 173.172 322.888 173.432 322.563C173.693 322.238 174.019 321.965 174.391 321.76L359.645 219.382C360.017 219.177 360.429 219.042 360.856 218.987C361.284 218.931 361.718 218.956 362.135 219.06C362.553 219.163 362.944 219.343 363.288 219.59C363.631 219.836 363.92 220.144 364.138 220.496C364.355 220.849 364.498 221.238 364.556 221.642C364.615 222.046 364.589 222.457 364.479 222.851C364.37 223.246 364.179 223.616 363.918 223.941C363.658 224.266 363.332 224.539 362.959 224.745Z" fill="#CCCCCC"/>
<path d="M303.052 296.645C305.626 293.779 307.943 290.715 309.978 287.485C311.804 284.572 313.595 281.457 313.997 278.04C314.203 276.584 314.043 275.104 313.529 273.718C313.016 272.333 312.164 271.082 311.043 270.066C309.959 269.121 308.585 268.527 307.121 268.37C305.656 268.213 304.177 268.5 302.897 269.19C301.601 269.894 300.531 270.915 299.799 272.146C299.067 273.378 298.701 274.773 298.739 276.185C298.844 277.74 299.319 279.252 300.129 280.609C300.938 281.966 302.061 283.133 303.414 284.022C308.89 287.773 317.441 287.577 323.278 284.722C329.851 281.507 333.248 273.095 328.083 267.337C327.009 266.139 325.221 267.477 325.49 268.769C325.832 270.514 326.865 272.071 328.379 273.12C329.893 274.169 331.773 274.632 333.636 274.414C335.499 274.197 337.203 273.315 338.401 271.949C339.6 270.582 340.201 268.835 340.083 267.064L337.761 268.347C340.607 269.539 343.735 270.002 346.831 269.688C349.926 269.374 352.879 268.294 355.394 266.559C356.637 265.704 357.748 264.689 358.693 263.543C359.83 262.141 361.739 261.236 363.284 260.226L374.424 252.948C376.062 251.878 374.504 249.327 372.852 250.406L362.764 256.997C361.083 258.095 359.39 259.18 357.72 260.293C356.525 261.088 355.79 262.371 354.703 263.316C352.645 265.066 350.104 266.227 347.375 266.663C344.646 267.1 341.842 266.794 339.289 265.781C339.052 265.66 338.785 265.599 338.515 265.604C338.245 265.608 337.981 265.678 337.748 265.807C337.515 265.936 337.321 266.119 337.184 266.339C337.048 266.559 336.973 266.809 336.968 267.064C337.091 268.121 336.767 269.181 336.067 270.013C335.368 270.846 334.348 271.383 333.232 271.508C332.115 271.633 330.991 271.336 330.105 270.681C329.219 270.026 328.643 269.067 328.501 268.012L325.908 269.445C329.24 273.16 327.021 278.857 323.183 281.35C318.891 284.137 312.548 284.621 307.71 282.889C306.523 282.502 305.433 281.889 304.508 281.087C303.583 280.284 302.843 279.31 302.334 278.225C301.863 277.245 301.728 276.15 301.95 275.094C302.171 274.037 302.737 273.074 303.569 272.338C304.289 271.665 305.258 271.283 306.271 271.273C307.284 271.262 308.261 271.625 308.997 272.283C309.798 273.056 310.386 274.004 310.708 275.043C311.031 276.082 311.078 277.179 310.847 278.239C310.348 281.19 308.623 283.91 307.018 286.43C305.186 289.301 303.114 292.029 300.822 294.588C299.538 296.026 301.754 298.097 303.052 296.645Z" fill="#348E91"/>
<path d="M330.702 366.659C330.97 366.92 331.216 367.201 331.438 367.499L365.935 366.7L369.959 359.747L381.851 364.118L375.992 377.083C375.519 378.13 374.699 379.004 373.656 379.573C372.612 380.142 371.402 380.376 370.206 380.24L331.231 375.788C330.312 376.888 329.06 377.698 327.642 378.109C326.224 378.521 324.707 378.514 323.293 378.09C321.879 377.667 320.635 376.846 319.727 375.738C318.818 374.629 318.288 373.285 318.207 371.885C318.125 370.485 318.497 369.094 319.272 367.898C320.047 366.703 321.189 365.758 322.545 365.191C323.901 364.624 325.408 364.46 326.865 364.723C328.322 364.985 329.661 365.66 330.702 366.659Z" fill="#FFB7B7"/>
<path d="M443.156 564.751H431.813L426.417 523.383L443.158 523.384L443.156 564.751Z" fill="#FFB7B7"/>
<path d="M446.048 575.148L409.475 575.146V574.709C409.475 571.139 410.975 567.716 413.645 565.192C416.314 562.667 419.935 561.249 423.71 561.249H423.711L446.049 561.25L446.048 575.148Z" fill="#2F2E41"/>
<path d="M340.159 564.513L329.729 560.299L341.953 520.252L357.348 526.471L340.159 564.513Z" fill="#FFB7B7"/>
<path d="M338.501 575.148L304.867 561.562L305.049 561.16C306.532 557.877 309.334 555.286 312.838 553.956C316.342 552.626 320.26 552.667 323.732 554.069L323.733 554.069L344.275 562.367L338.501 575.148Z" fill="#2F2E41"/>
<path d="M388.023 375.621L387.202 388.189L411.178 390.614L436.265 393.153L428.88 374.069L388.023 375.621Z" fill="#FFB7B7"/>
<path d="M386.447 388.35L377.133 326.955L393.277 321.952L398.019 315.803L421.093 317.094L424.48 324.269L436.784 329.766L434.893 362.97L436.273 390.746L386.447 388.35Z" fill="#2F2E41"/>
<path d="M380.585 371.897L364.164 365.685L364.234 365.409C364.304 365.13 371.293 337.515 372.221 333.077C373.188 328.454 376.72 327.176 376.87 327.124L376.979 327.085L383.478 328.956L386.332 350.16L380.585 371.897Z" fill="#2F2E41"/>
<path d="M348.608 557.243L326.749 553.003L361.686 461.85L373.643 430.759C373.643 430.759 381.226 405.83 384.653 396.183L386.721 383.239L435.67 388.362C435.67 388.362 449.341 407.346 445.188 438.289L447.066 554.593L425.207 555.653L406.898 438.355L374.764 502.657C374.764 502.657 364.635 530.097 357.389 536.044L348.608 557.243Z" fill="#2F2E41"/>
<path d="M416.04 392.679C416.425 392.671 416.81 392.691 417.191 392.739L440.027 368.278L437.371 360.76L448.846 355.486L454.917 368.363C455.407 369.404 455.528 370.566 455.26 371.677C454.992 372.787 454.35 373.786 453.431 374.522L423.479 398.519C423.708 399.904 423.484 401.323 422.839 402.586C422.194 403.849 421.158 404.896 419.868 405.588C418.578 406.28 417.096 406.585 415.618 406.461C414.141 406.338 412.738 405.792 411.597 404.896C410.456 404 409.63 402.797 409.23 401.447C408.829 400.096 408.873 398.663 409.355 397.336C409.838 396.01 410.736 394.854 411.93 394.022C413.124 393.19 414.557 392.722 416.04 392.679Z" fill="#FFB7B7"/>
<path d="M438.204 370.658L428.678 349.472L432.394 334.714L436.397 329.932C436.69 329.813 437.006 329.754 437.325 329.756C437.644 329.759 437.959 329.825 438.249 329.948C439.726 330.51 440.983 332.232 441.986 335.066L450.914 359.11L438.204 370.658Z" fill="#2F2E41"/>
<path d="M388.782 307.952V291.98C388.782 286.303 391.167 280.859 395.412 276.845C399.657 272.831 405.415 270.576 411.418 270.576C417.422 270.576 423.18 272.831 427.425 276.845C431.67 280.859 434.055 286.303 434.055 291.98V307.952C434.054 308.715 433.733 309.446 433.163 309.985C432.593 310.524 431.82 310.827 431.014 310.828H391.823C391.017 310.827 390.244 310.524 389.674 309.985C389.104 309.446 388.783 308.715 388.782 307.952Z" fill="#2F2E41"/>
<path d="M406.767 310.456C415.933 310.456 423.363 303.43 423.363 294.764C423.363 286.097 415.933 279.071 406.767 279.071C397.601 279.071 390.171 286.097 390.171 294.764C390.171 303.43 397.601 310.456 406.767 310.456Z" fill="#FFB7B7"/>
<path d="M383.427 293.258C383.432 288.769 385.321 284.465 388.678 281.291C392.035 278.117 396.586 276.332 401.333 276.327H404.712C409.46 276.332 414.011 278.117 417.368 281.291C420.725 284.465 422.613 288.769 422.618 293.258V293.577H415.478L413.043 287.129L412.556 293.577H408.866L407.637 290.324L407.392 293.577H383.427L383.427 293.258Z" fill="#2F2E41"/>
<path d="M405.134 312.624C404.799 312.195 404.598 311.685 404.556 311.153C404.514 310.621 404.632 310.088 404.896 309.617C408.476 303.178 413.489 291.28 406.835 283.942L406.357 283.415H425.674V310.837L408.126 313.765C407.948 313.794 407.768 313.809 407.588 313.809C407.109 313.809 406.636 313.702 406.21 313.496C405.783 313.29 405.414 312.991 405.134 312.624Z" fill="#2F2E41"/>
<path d="M179.798 555.716L190.049 559.18L209.058 523.442L193.929 518.33L179.798 555.716Z" fill="#9F616A"/>
<path d="M173.632 564.227L178.379 551.667L198.567 558.489C201.977 559.645 204.762 562.033 206.312 565.129C207.862 568.224 208.05 571.775 206.835 575.001L206.685 575.396L173.632 564.227Z" fill="#2F2E41"/>
<path d="M246.457 565.302L257.342 565.301L262.522 525.6L246.455 525.601L246.457 565.302Z" fill="#9F616A"/>
<path d="M243.68 561.942L265.118 561.941H265.119C266.913 561.941 268.69 562.275 270.347 562.924C272.005 563.573 273.511 564.525 274.78 565.724C276.048 566.924 277.055 568.348 277.741 569.915C278.428 571.483 278.781 573.162 278.781 574.859V575.279L243.681 575.28L243.68 561.942Z" fill="#2F2E41"/>
<path d="M221.648 311.659L226.382 302.813C226.382 302.813 244.018 306.992 245.622 316.657L221.648 311.659Z" fill="#F1F1F1"/>
<path d="M202.113 412.798L214.988 480.73L180.802 537.894L201.225 545.45L235.855 490.039L240.294 474.926L242.958 553.846L261.376 553.317L269.821 479.625L256.277 411.119L202.113 412.798Z" fill="#2F2E41"/>
<path d="M226.553 428.857C207.639 428.857 195.63 425.436 195.361 425.382L194.926 425.295L204.777 382.107L205.221 342.269C205.221 325.388 216.972 312.942 218.602 311.793C218.877 310.768 219.385 309.813 220.09 308.993C220.796 308.173 221.682 307.508 222.687 307.046C226.607 305.364 231.397 307.382 231.598 307.469L245.975 312.565L246.042 312.754C246.215 313.237 265.151 372.014 265.151 372.014C265.151 372.014 264.005 423.371 263.605 425.053C263.605 425.053 237.062 428.857 226.553 428.857Z" fill="#3F3D56"/>
<path d="M241.086 300.028C251.817 300.028 260.517 291.803 260.517 281.656C260.517 271.509 251.817 263.284 241.086 263.284C230.355 263.284 221.656 271.509 221.656 281.656C221.656 291.803 230.355 300.028 241.086 300.028Z" fill="#9F616A"/>
<path opacity="0.2" d="M219.422 345.527L253.415 390.373L258.435 369.431L219.422 345.527Z" fill="black"/>
<path d="M325.998 376.041C325.042 376.756 323.932 377.265 322.746 377.53C321.56 377.796 320.326 377.812 319.133 377.578C317.939 377.344 316.814 376.865 315.837 376.176C314.86 375.486 314.055 374.603 313.479 373.587L284.219 378.015L290.558 364.747L317.372 362.576C319.24 361.773 321.355 361.646 323.316 362.219C325.277 362.792 326.947 364.026 328.01 365.686C329.074 367.345 329.456 369.316 329.086 371.225C328.715 373.134 327.616 374.847 325.998 376.041Z" fill="#9F616A"/>
<path d="M292.065 363.992L302.578 363.017L305.492 376.884L292.263 377.105L292.065 363.992Z" fill="#F1F1F1"/>
<path d="M300.683 381.715L249.194 377.38L223.195 338.285L223.115 337.939C222.377 334.745 222.894 331.407 224.569 328.547C226.243 325.687 228.962 323.501 232.216 322.398C235.47 321.294 239.038 321.348 242.253 322.549C245.469 323.751 248.112 326.018 249.689 328.927L264.951 357.075L295.752 361.478L300.683 381.715Z" fill="#3F3D56"/>
<path d="M224.536 297.608L240.663 298.155C241.646 298.188 244.314 288.157 244.664 286.076C244.94 284.721 245.728 283.507 246.881 282.662C248.034 281.816 249.473 281.397 250.93 281.481C252.137 281.589 255.181 279.456 258.322 276.931C264.286 272.137 263.976 263.133 257.425 259.082C257.246 258.971 257.07 258.87 256.897 258.779C252.764 256.591 247.93 255.857 243.194 255.801C238.901 255.75 234.486 256.261 230.703 258.182C223.923 261.627 220.314 269.154 219.997 276.426C219.68 283.698 222.146 290.809 224.943 297.59" fill="#2F2E41"/>
<path d="M628.82 576H0.844504C0.620528 576 0.405724 575.916 0.247349 575.766C0.0889736 575.616 0 575.413 0 575.201C0 574.99 0.0889736 574.786 0.247349 574.637C0.405724 574.487 0.620528 574.403 0.844504 574.403H629.155C629.379 574.403 629.594 574.487 629.753 574.637C629.911 574.786 630 574.99 630 575.201C630 575.642 629.286 576 628.82 576Z" fill="#CBCBCB"/>
</g>
<defs>
<clipPath id="clip0_14_240">
<rect width="630" height="576" fill="white"/>
</clipPath>
</defs>
</svg>
